<svg width="16" height="16" viewBox="0 0 16 16" fill="none" xmlns="http://www.w3.org/2000/svg">
<path d="M1.66311 7.12319C1.3482 7.12407 1.03997 7.21409 0.774083 7.38284C0.508199 7.55159 0.295525 7.79218 0.160666 8.07675C0.0258074 8.36133 -0.025725 8.67827 0.0120309 8.99092C0.0497867 9.30356 0.175288 9.59912 0.374015 9.84342L4.61041 15.033C4.76145 15.2205 4.95507 15.3694 5.17518 15.4671C5.39529 15.5648 5.63553 15.6085 5.87595 15.5947C6.39016 15.5671 6.8544 15.2921 7.15038 14.8398L15.9504 0.667295C15.9519 0.664944 15.9534 0.662593 15.9549 0.660277C16.0375 0.533498 16.0107 0.282255 15.8403 0.124421C15.7935 0.0810777 15.7383 0.0477782 15.6781 0.0265729C15.6179 0.00536766 15.5541 -0.0032944 15.4904 0.00112044C15.4268 0.00553527 15.3647 0.0229335 15.308 0.0522435C15.2513 0.0815535 15.2013 0.122155 15.1609 0.171547C15.1577 0.17543 15.1545 0.179255 15.1511 0.183021L6.27615 10.2104C6.24238 10.2486 6.20137 10.2796 6.15549 10.3018C6.10961 10.324 6.05978 10.3368 6.0089 10.3396C5.95802 10.3423 5.9071 10.3349 5.8591 10.3179C5.8111 10.3008 5.76697 10.2743 5.72928 10.24L2.78384 7.55963C2.47793 7.27921 2.0781 7.1235 1.66311 7.12319Z" fill="#515A60"/>
</svg>
