<svg xmlns="http://www.w3.org/2000/svg" width="358" height="455" viewBox="0 0 358 455" fill="none"><path d="M294.963 24.7751L56.5283 43.959L84.786 395.171L323.221 375.988L294.963 24.7751Z" fill="white"></path><path d="M323.2 376C323.03 373.88 311.51 231.83 294.72 24.81L294.98 25.03C222.42 30.87 141.6 37.38 56.5702 44.22H56.5402L56.7802 43.94C67.3902 176.12 77.1802 298.12 84.9702 395.15L84.7502 394.96C229.96 383.42 321.5 376.14 323.2 376C321.5 376.14 229.97 383.58 84.7802 395.38L84.5702 395.4L84.5502 395.19C76.7302 298.16 66.9102 176.16 56.2602 43.98L56.2402 43.72L56.5002 43.7H56.5302C141.55 36.87 222.38 30.38 294.94 24.55L295.18 24.53L295.2 24.77C311.7 231.81 323.03 373.88 323.2 376Z" fill="#263238"></path><path d="M276.864 90.4261L84.8906 105.872L85.2419 110.238L277.216 94.7921L276.864 90.4261Z" fill="#E0E0E0"></path><path d="M182.078 107.583L85.6475 115.341L85.9987 119.707L182.429 111.948L182.078 107.583Z" fill="#E0E0E0"></path><path d="M263.589 119.974L104.619 132.764L104.97 137.13L263.94 124.34L263.589 119.974Z" fill="#E0E0E0"></path><path d="M155.356 149.538L106.283 153.486L106.634 157.852L155.707 153.904L155.356 149.538Z" fill="#E0E0E0"></path><path d="M88.19 143.02L87.21 130.83L99.4 129.85L100.38 142.04L88.19 143.02ZM88.29 131.74L89.11 141.94L99.31 141.12L98.49 130.92L88.29 131.74Z" fill="#E0E0E0"></path><path d="M89.8599 163.78L88.8799 151.59L101.07 150.61L102.05 162.8L89.8599 163.78ZM89.9599 152.5L90.7799 162.7L100.98 161.88L100.16 151.68L89.9599 152.5Z" fill="#E0E0E0"></path><path d="M216.215 164.786L107.873 173.492L108.224 177.858L216.566 169.152L216.215 164.786Z" fill="#E0E0E0"></path><path d="M91.4702 183.77L90.4902 171.58L102.68 170.6L103.66 182.79L91.4702 183.77ZM91.5702 172.5L92.3902 182.7L102.59 181.88L101.77 171.68L91.5702 172.5Z" fill="#E0E0E0"></path><path d="M284.19 181.548L92.2158 196.993L92.5671 201.359L284.541 185.914L284.19 181.548Z" fill="#E0E0E0"></path><path d="M189.392 198.714L92.9619 206.463L93.3128 210.829L189.743 203.08L189.392 198.714Z" fill="#E0E0E0"></path><path d="M270.914 211.085L111.944 223.875L112.296 228.241L271.265 215.451L270.914 211.085Z" fill="#E0E0E0"></path><path d="M162.691 240.649L113.618 244.597L113.969 248.963L163.042 245.015L162.691 240.649Z" fill="#E0E0E0"></path><path d="M95.52 234.13L94.54 221.94L106.73 220.96L107.71 233.15L95.52 234.13ZM95.61 222.85L96.43 233.05L106.63 232.23L105.81 222.03L95.61 222.85Z" fill="#E0E0E0"></path><path d="M97.19 254.89L96.21 242.7L108.4 241.72L109.38 253.91L97.19 254.89ZM97.28 243.62L98.1 253.82L108.3 253L107.48 242.8L97.28 243.62Z" fill="#E0E0E0"></path><path d="M223.567 255.874L115.225 264.591L115.576 268.957L223.918 260.24L223.567 255.874Z" fill="#E0E0E0"></path><path d="M98.7896 274.89L97.8096 262.7L110 261.72L110.98 273.91L98.7896 274.89ZM98.8896 263.61L99.7096 273.81L109.91 272.99L109.09 262.79L98.8896 263.61Z" fill="#E0E0E0"></path><path d="M291.524 272.639L99.5498 288.084L99.9011 292.45L291.875 277.004L291.524 272.639Z" fill="#E0E0E0"></path><path d="M196.707 289.806L100.276 297.555L100.627 301.921L197.058 294.172L196.707 289.806Z" fill="#E0E0E0"></path><path d="M278.248 302.176L119.278 314.966L119.63 319.332L278.599 306.542L278.248 302.176Z" fill="#E0E0E0"></path><path d="M170.014 331.74L120.941 335.689L121.293 340.055L170.365 336.106L170.014 331.74Z" fill="#E0E0E0"></path><path d="M102.839 325.22L101.859 313.03L114.049 312.05L115.029 324.24L102.839 325.22ZM102.939 313.95L103.759 324.15L113.959 323.33L113.139 313.13L102.939 313.95Z" fill="#E0E0E0"></path><path d="M104.509 345.99L103.529 333.8L115.719 332.82L116.699 345.01L104.509 345.99ZM104.609 334.71L105.429 344.91L115.629 344.09L114.809 333.89L104.609 334.71Z" fill="#E0E0E0"></path><path d="M230.891 346.965L122.549 355.682L122.9 360.048L231.242 351.331L230.891 346.965Z" fill="#E0E0E0"></path><path d="M106.12 365.98L105.14 353.79L117.33 352.81L118.31 365L106.12 365.98ZM106.22 354.7L107.04 364.9L117.24 364.08L116.42 353.88L106.22 354.7Z" fill="#E0E0E0"></path><path d="M151.531 79.8302L151.901 84.4302L135.001 85.7902L133.311 64.7402L149.821 63.4102L150.191 68.0102L139.571 68.8602L139.861 72.4102L149.211 71.6602L149.571 76.1102L140.221 76.8602L140.531 80.7102L151.531 79.8302Z" fill="#C4161C"></path><path d="M168.321 83.1101L163.431 76.93L159.661 83.8001L152.861 84.35L159.671 73.09L151.501 63.28L158.211 62.7401L162.911 68.4801L166.571 62.07L173.001 61.55L166.481 72.3001L175.171 82.56L168.321 83.1101Z" fill="#C4161C"></path><path d="M189.82 77.2602L180.92 77.9802L179.6 82.2002L173.53 82.6902L181.13 60.8902L186.99 60.4202L198 80.7202L191.8 81.2202L189.82 77.2602ZM187.72 73.0102L184.47 66.4902L182.31 73.4402L187.72 73.0102Z" fill="#C4161C"></path><path d="M218.68 79.0601L217.72 67.9101L213.04 77.4301L210.39 77.6401L204.3 69.2901L205.17 80.1501L199.67 80.5901L197.98 59.5401L202.88 59.1501L211.25 70.7001L217.49 57.9701L222.39 57.5801L224.14 78.6201L218.68 79.0601Z" fill="#C4161C"></path><path d="M11.0203 157.42L103 169.75L105.66 170.45L96.9403 230.31L48.0803 223.97L0.570312 217L11.0203 157.42Z" fill="#C4161C"></path><path d="M95.5499 227.29L94.5398 228.68L3.08984 215.89L3.15984 213.92L39.5098 214.14L89.3698 219.37L95.5499 227.29Z" fill="#E0E0E0"></path><path d="M103.63 169.81C103.63 169.81 92.4102 156.52 57.7102 162.47C57.7102 162.47 36.7402 148.18 12.8302 156.89L3.16016 213.93C3.16016 213.93 33.7002 213.61 43.3702 221.18L55.3302 222.71C55.3302 222.71 83.4402 216.88 95.5402 227.29L103.63 169.81Z" fill="#FAFAFA"></path><path d="M103.631 169.81C103.631 169.81 103.571 170.16 103.481 170.84C103.381 171.52 103.241 172.53 103.051 173.85C102.671 176.5 102.121 180.39 101.411 185.38C100.001 195.36 97.9706 209.72 95.4905 227.28L95.6005 227.24C94.4105 226.24 93.0806 225.38 91.6606 224.64C90.2306 223.92 88.7005 223.35 87.1305 222.86C83.9705 221.92 80.5906 221.4 77.1206 221.16C73.6506 220.92 70.0705 220.96 66.4305 221.21C62.7906 221.47 59.0805 221.91 55.3405 222.62H55.3706C51.6106 222.14 47.5405 221.62 43.4105 221.09L43.4505 221.11C42.1705 220.11 40.7006 219.36 39.1805 218.72C37.6605 218.09 36.0805 217.58 34.4605 217.13C31.2305 216.26 27.8805 215.65 24.4705 215.18C21.0605 214.72 17.5805 214.39 14.0605 214.18C10.5405 213.96 6.98055 213.83 3.39055 213.84C3.32055 213.84 3.26055 213.84 3.19055 213.84L3.27055 213.94C6.69055 193.73 9.96055 174.46 12.9305 156.9L12.8805 156.96C14.9405 156.24 17.0105 155.61 19.1005 155.18C19.6205 155.05 20.1505 154.98 20.6605 154.88C21.1805 154.79 21.7005 154.69 22.2205 154.63C22.7405 154.56 23.2605 154.49 23.7805 154.43C24.3005 154.39 24.8205 154.34 25.3405 154.3C29.4805 153.99 33.5405 154.24 37.3905 154.88C41.2405 155.54 44.9006 156.57 48.3006 157.88C51.7006 159.19 54.8706 160.72 57.6906 162.53L57.7105 162.54H57.7306C65.0406 161.3 71.7706 160.82 77.6606 161.06C83.5506 161.29 88.5805 162.25 92.5205 163.55C96.4705 164.84 99.3105 166.43 101.101 167.68C102.001 168.31 102.631 168.84 103.051 169.22C103.441 169.59 103.631 169.81 103.631 169.81C103.631 169.81 103.451 169.59 103.041 169.2C102.631 168.82 102.001 168.27 101.101 167.64C99.3205 166.38 96.4805 164.77 92.5205 163.48C88.5805 162.17 83.5406 161.2 77.6405 160.96C71.7405 160.71 65.0106 161.17 57.6906 162.41L57.7306 162.42C54.9006 160.6 51.7205 159.07 48.3105 157.75C44.9005 156.43 41.2405 155.41 37.3805 154.74C33.5205 154.1 29.4505 153.83 25.3005 154.15C24.7805 154.19 24.2605 154.24 23.7405 154.28C23.2205 154.35 22.7005 154.42 22.1805 154.48C21.6605 154.54 21.1405 154.64 20.6105 154.73C20.0905 154.83 19.5605 154.9 19.0405 155.03C16.9405 155.46 14.8705 156.1 12.8005 156.81L12.7605 156.82L12.7505 156.87C9.77055 174.43 6.50055 193.7 3.08055 213.91L3.06055 214.01H3.16055C3.23055 214.01 3.29055 214.01 3.36055 214.01C6.95055 214.01 10.5105 214.14 14.0205 214.35C17.5405 214.57 21.0105 214.89 24.4205 215.35C27.8305 215.82 31.1705 216.42 34.3905 217.29C36.0005 217.73 37.5705 218.25 39.0905 218.87C40.6005 219.5 42.0606 220.25 43.3205 221.23L43.3405 221.24H43.3605C47.5005 221.77 51.5606 222.29 55.3205 222.77H55.3306H55.3405C59.0705 222.05 62.7706 221.62 66.4106 221.36C70.0406 221.11 73.6206 221.07 77.0806 221.3C80.5406 221.54 83.9105 222.05 87.0605 222.98C88.6305 223.46 90.1506 224.03 91.5705 224.75C92.9905 225.48 94.3105 226.33 95.4905 227.32L95.5806 227.4L95.6005 227.28C98.0605 209.71 100.071 195.34 101.471 185.35C102.161 180.36 102.711 176.47 103.071 173.83C103.251 172.51 103.391 171.5 103.481 170.82C103.591 170.15 103.631 169.81 103.631 169.81Z" fill="#263238"></path><path d="M48.3004 222.06C48.3504 222.07 50.5104 208.76 53.1304 192.34C55.7504 175.92 57.8404 162.6 57.8004 162.59C57.7504 162.58 55.5904 175.89 52.9704 192.31C50.3404 208.73 48.2604 222.05 48.3004 222.06Z" fill="#263238"></path><path d="M17.1504 163.83C17.1504 163.83 17.1804 163.83 17.2504 163.82C17.3204 163.81 17.4104 163.79 17.5304 163.77C17.7804 163.72 18.1404 163.66 18.5904 163.58C18.8204 163.54 19.0804 163.49 19.3604 163.44C19.6404 163.39 19.9504 163.36 20.2804 163.31C20.9404 163.22 21.6904 163.1 22.5204 163.04C22.9404 163 23.3704 162.96 23.8304 162.92C24.2804 162.88 24.7604 162.87 25.2504 162.85C26.2304 162.78 27.2804 162.8 28.3904 162.8C30.6004 162.86 33.0304 163.05 35.5504 163.45C38.0704 163.87 40.4304 164.47 42.5404 165.12C43.5904 165.47 44.5904 165.79 45.5004 166.17C45.9604 166.35 46.4104 166.51 46.8204 166.69C47.2404 166.87 47.6404 167.05 48.0204 167.22C48.7904 167.54 49.4604 167.9 50.0604 168.2C50.3604 168.35 50.6404 168.48 50.8904 168.62C51.1404 168.76 51.3604 168.88 51.5704 169C51.9704 169.22 52.2904 169.4 52.5104 169.52C52.6104 169.57 52.6904 169.62 52.7604 169.65C52.8204 169.68 52.8504 169.69 52.8504 169.69C52.8504 169.69 52.8204 169.67 52.7704 169.64C52.7104 169.6 52.6304 169.55 52.5304 169.49C52.3104 169.36 52.0004 169.18 51.6004 168.94C51.4004 168.82 51.1704 168.69 50.9304 168.55C50.6804 168.41 50.4004 168.27 50.1104 168.12C49.5204 167.82 48.8504 167.45 48.0804 167.12C47.7004 166.95 47.3004 166.77 46.8804 166.58C46.4604 166.39 46.0104 166.23 45.5604 166.05C44.6504 165.67 43.6504 165.34 42.6004 164.99C40.4804 164.33 38.1104 163.72 35.5904 163.3C33.0604 162.9 30.6204 162.71 28.4104 162.66C27.3004 162.66 26.2504 162.65 25.2604 162.72C24.7704 162.75 24.2904 162.76 23.8404 162.8C23.3804 162.85 22.9504 162.89 22.5304 162.93C21.6904 163 20.9504 163.13 20.2904 163.23C19.9604 163.28 19.6504 163.32 19.3704 163.37C19.0904 163.43 18.8404 163.48 18.6104 163.53C18.1604 163.62 17.8104 163.7 17.5504 163.75C17.4404 163.78 17.3504 163.8 17.2804 163.81C17.1904 163.82 17.1504 163.83 17.1504 163.83Z" fill="#263238"></path><path d="M16.19 170.66C16.19 170.66 16.22 170.66 16.29 170.65C16.36 170.64 16.46 170.62 16.57 170.6C16.83 170.55 17.19 170.49 17.65 170.41C17.89 170.37 18.15 170.32 18.43 170.27C18.72 170.22 19.03 170.19 19.37 170.14C20.04 170.05 20.8 169.93 21.65 169.87C22.07 169.83 22.52 169.79 22.98 169.75C23.44 169.71 23.93 169.7 24.43 169.68C25.43 169.62 26.5 169.63 27.63 169.63C29.88 169.69 32.36 169.87 34.93 170.28C37.5 170.7 39.91 171.3 42.07 171.95C43.14 172.3 44.16 172.62 45.09 173C45.56 173.18 46.01 173.34 46.44 173.52C46.87 173.71 47.28 173.88 47.67 174.05C48.46 174.37 49.14 174.73 49.75 175.03C50.05 175.18 50.34 175.31 50.6 175.45C50.85 175.59 51.09 175.72 51.3 175.83C51.71 176.05 52.04 176.23 52.27 176.35C52.37 176.4 52.46 176.45 52.52 176.48C52.58 176.51 52.61 176.52 52.61 176.52C52.61 176.52 52.58 176.5 52.53 176.47C52.47 176.43 52.39 176.38 52.28 176.32C52.05 176.19 51.73 176 51.33 175.77C51.12 175.65 50.89 175.52 50.64 175.38C50.38 175.24 50.1 175.1 49.8 174.95C49.19 174.65 48.51 174.28 47.72 173.95C47.33 173.78 46.92 173.6 46.49 173.41C46.06 173.22 45.6 173.06 45.14 172.88C44.21 172.5 43.18 172.18 42.11 171.82C39.95 171.16 37.53 170.56 34.95 170.13C32.37 169.73 29.89 169.54 27.63 169.49C26.5 169.49 25.43 169.48 24.42 169.55C23.92 169.58 23.43 169.59 22.97 169.63C22.51 169.68 22.06 169.72 21.63 169.76C20.78 169.83 20.02 169.96 19.34 170.06C19 170.11 18.69 170.15 18.41 170.2C18.13 170.26 17.87 170.31 17.63 170.36C17.17 170.45 16.81 170.53 16.55 170.58C16.43 170.61 16.34 170.63 16.27 170.64C16.22 170.65 16.18 170.66 16.19 170.66Z" fill="#263238"></path><path d="M14.0703 177.43C14.0703 177.43 14.1003 177.43 14.1703 177.42C14.2403 177.41 14.3403 177.39 14.4503 177.37C14.7103 177.32 15.0703 177.26 15.5303 177.18C15.7703 177.14 16.0303 177.09 16.3103 177.04C16.6003 176.99 16.9103 176.96 17.2503 176.91C17.9203 176.82 18.6803 176.7 19.5303 176.64C19.9503 176.6 20.4003 176.56 20.8603 176.52C21.3203 176.48 21.8103 176.47 22.3103 176.45C23.3103 176.39 24.3803 176.4 25.5103 176.4C27.7603 176.46 30.2403 176.64 32.8103 177.05C35.3803 177.47 37.7903 178.07 39.9503 178.72C41.0203 179.07 42.0403 179.39 42.9703 179.77C43.4403 179.95 43.8903 180.11 44.3203 180.29C44.7503 180.48 45.1603 180.65 45.5503 180.82C46.3403 181.14 47.0203 181.5 47.6303 181.8C47.9303 181.95 48.2203 182.08 48.4803 182.22C48.7303 182.36 48.9703 182.49 49.1803 182.6C49.5903 182.82 49.9203 183 50.1503 183.12C50.2503 183.17 50.3403 183.22 50.4003 183.25C50.4603 183.28 50.4903 183.29 50.4903 183.29C50.4903 183.29 50.4603 183.27 50.4103 183.24C50.3503 183.2 50.2703 183.15 50.1603 183.09C49.9303 182.96 49.6103 182.77 49.2103 182.54C49.0003 182.42 48.7703 182.29 48.5203 182.15C48.2603 182.01 47.9803 181.87 47.6803 181.72C47.0703 181.42 46.3903 181.05 45.6003 180.72C45.2103 180.55 44.8003 180.37 44.3703 180.18C43.9403 179.99 43.4803 179.83 43.0203 179.65C42.0903 179.27 41.0603 178.95 39.9903 178.59C37.8303 177.93 35.4103 177.33 32.8303 176.9C30.2503 176.5 27.7703 176.31 25.5103 176.26C24.3803 176.26 23.3103 176.25 22.3003 176.32C21.8003 176.35 21.3103 176.36 20.8503 176.4C20.3903 176.45 19.9403 176.49 19.5103 176.53C18.6603 176.6 17.9003 176.73 17.2203 176.83C16.8803 176.88 16.5703 176.92 16.2903 176.97C16.0103 177.03 15.7503 177.08 15.5103 177.13C15.0503 177.22 14.6903 177.3 14.4303 177.35C14.3103 177.38 14.2203 177.4 14.1503 177.41C14.1003 177.42 14.0703 177.43 14.0703 177.43Z" fill="#263238"></path><path d="M13.29 184.25C13.29 184.25 13.32 184.25 13.39 184.24C13.46 184.23 13.56 184.21 13.67 184.19C13.93 184.14 14.29 184.08 14.75 184C14.99 183.96 15.25 183.91 15.53 183.86C15.82 183.81 16.13 183.78 16.47 183.73C17.14 183.64 17.9 183.52 18.75 183.46C19.17 183.42 19.62 183.38 20.08 183.34C20.54 183.3 21.03 183.29 21.53 183.27C22.53 183.21 23.6 183.22 24.73 183.22C26.98 183.28 29.46 183.46 32.03 183.87C34.6 184.29 37.01 184.89 39.17 185.54C40.24 185.89 41.26 186.21 42.19 186.59C42.66 186.77 43.11 186.93 43.54 187.11C43.97 187.3 44.38 187.47 44.77 187.64C45.56 187.96 46.24 188.32 46.85 188.62C47.15 188.77 47.44 188.9 47.7 189.04C47.95 189.18 48.19 189.31 48.4 189.42C48.81 189.64 49.14 189.82 49.37 189.94C49.47 189.99 49.56 190.04 49.62 190.07C49.68 190.1 49.71 190.11 49.71 190.11C49.71 190.11 49.68 190.09 49.63 190.06C49.57 190.02 49.49 189.97 49.38 189.91C49.15 189.78 48.83 189.59 48.43 189.36C48.22 189.24 47.99 189.11 47.74 188.97C47.48 188.83 47.2 188.69 46.9 188.54C46.29 188.24 45.61 187.87 44.82 187.54C44.43 187.37 44.02 187.19 43.59 187C43.16 186.81 42.7 186.65 42.24 186.47C41.31 186.09 40.28 185.77 39.21 185.41C37.05 184.75 34.63 184.15 32.05 183.72C29.47 183.32 26.99 183.13 24.73 183.08C23.6 183.08 22.52 183.07 21.52 183.14C21.02 183.17 20.53 183.18 20.07 183.22C19.61 183.27 19.16 183.31 18.73 183.35C17.88 183.42 17.12 183.55 16.44 183.65C16.1 183.7 15.79 183.74 15.51 183.79C15.23 183.85 14.97 183.9 14.73 183.95C14.27 184.04 13.91 184.12 13.65 184.17C13.53 184.2 13.44 184.22 13.37 184.23C13.32 184.24 13.29 184.25 13.29 184.25Z" fill="#263238"></path><path d="M11.7207 191.04C11.7207 191.04 11.7507 191.04 11.8207 191.03C11.8907 191.02 11.9907 191 12.1007 190.98C12.3607 190.93 12.7207 190.87 13.1807 190.79C13.4207 190.75 13.6807 190.7 13.9607 190.65C14.2507 190.6 14.5607 190.57 14.9007 190.52C15.5707 190.43 16.3307 190.31 17.1807 190.25C17.6007 190.21 18.0507 190.17 18.5107 190.13C18.9707 190.09 19.4607 190.08 19.9607 190.06C20.9607 190 22.0307 190.01 23.1607 190.01C25.4107 190.07 27.8907 190.25 30.4607 190.66C33.0307 191.08 35.4407 191.68 37.6007 192.33C38.6707 192.68 39.6907 193 40.6207 193.38C41.0907 193.56 41.5407 193.72 41.9707 193.9C42.4007 194.09 42.8107 194.26 43.2007 194.43C43.9907 194.75 44.6707 195.11 45.2807 195.41C45.5807 195.56 45.8707 195.69 46.1307 195.83C46.3807 195.97 46.6207 196.1 46.8307 196.21C47.2407 196.43 47.5707 196.61 47.8007 196.73C47.9007 196.78 47.9907 196.83 48.0507 196.86C48.1107 196.89 48.1407 196.9 48.1407 196.9C48.1407 196.9 48.1107 196.88 48.0607 196.85C48.0007 196.81 47.9207 196.76 47.8107 196.7C47.5807 196.57 47.2607 196.38 46.8607 196.15C46.6507 196.03 46.4207 195.9 46.1707 195.76C45.9107 195.62 45.6307 195.48 45.3307 195.33C44.7207 195.03 44.0407 194.66 43.2507 194.33C42.8607 194.16 42.4507 193.98 42.0207 193.79C41.5907 193.6 41.1307 193.44 40.6707 193.26C39.7407 192.88 38.7107 192.56 37.6407 192.2C35.4807 191.54 33.0607 190.94 30.4807 190.51C27.9007 190.11 25.4207 189.92 23.1607 189.87C22.0307 189.87 20.9607 189.86 19.9507 189.93C19.4507 189.96 18.9607 189.97 18.5007 190.01C18.0407 190.06 17.5907 190.1 17.1607 190.14C16.3107 190.21 15.5507 190.34 14.8707 190.44C14.5307 190.49 14.2207 190.53 13.9307 190.58C13.6507 190.64 13.3907 190.69 13.1507 190.74C12.6907 190.83 12.3307 190.91 12.0707 190.96C11.9507 190.99 11.8607 191.01 11.7907 191.02C11.7507 191.03 11.7207 191.04 11.7207 191.04Z" fill="#263238"></path><path d="M10.6602 197.85C10.6602 197.85 10.6902 197.85 10.7602 197.84C10.8302 197.83 10.9302 197.81 11.0402 197.79C11.3002 197.74 11.6602 197.68 12.1202 197.6C12.3602 197.56 12.6202 197.51 12.9002 197.46C13.1902 197.41 13.5002 197.38 13.8402 197.33C14.5102 197.24 15.2702 197.12 16.1202 197.06C16.5402 197.02 16.9902 196.98 17.4502 196.94C17.9102 196.9 18.4002 196.89 18.9002 196.87C19.9002 196.81 20.9702 196.82 22.1002 196.82C24.3502 196.88 26.8302 197.06 29.4002 197.47C31.9702 197.89 34.3802 198.49 36.5402 199.14C37.6102 199.49 38.6302 199.81 39.5602 200.19C40.0302 200.37 40.4802 200.53 40.9102 200.71C41.3402 200.9 41.7502 201.07 42.1402 201.24C42.9302 201.56 43.6102 201.92 44.2202 202.22C44.5202 202.37 44.8102 202.5 45.0702 202.64C45.3202 202.78 45.5602 202.91 45.7702 203.02C46.1802 203.24 46.5102 203.42 46.7402 203.54C46.8402 203.59 46.9302 203.64 46.9902 203.67C47.0502 203.7 47.0802 203.71 47.0802 203.71C47.0802 203.71 47.0502 203.69 47.0002 203.66C46.9402 203.62 46.8602 203.57 46.7502 203.51C46.5202 203.38 46.2002 203.19 45.8002 202.96C45.5902 202.84 45.3602 202.71 45.1102 202.57C44.8502 202.43 44.5702 202.29 44.2702 202.14C43.6602 201.84 42.9802 201.47 42.1902 201.14C41.8002 200.97 41.3902 200.79 40.9602 200.6C40.5302 200.41 40.0702 200.25 39.6102 200.07C38.6802 199.69 37.6502 199.37 36.5802 199.01C34.4202 198.35 32.0002 197.75 29.4202 197.32C26.8402 196.92 24.3602 196.73 22.1002 196.68C20.9702 196.68 19.9002 196.67 18.8902 196.74C18.3902 196.77 17.9002 196.78 17.4402 196.82C16.9802 196.87 16.5302 196.91 16.1002 196.95C15.2502 197.02 14.4902 197.15 13.8102 197.25C13.4702 197.3 13.1602 197.34 12.8802 197.39C12.6002 197.45 12.3402 197.5 12.1002 197.55C11.6402 197.64 11.2802 197.72 11.0202 197.77C10.9002 197.8 10.8102 197.82 10.7402 197.83C10.6902 197.84 10.6602 197.85 10.6602 197.85Z" fill="#263238"></path><path d="M9.27051 204.65C9.27051 204.65 9.30051 204.65 9.37051 204.64C9.44051 204.63 9.54051 204.61 9.65051 204.59C9.91051 204.54 10.2705 204.48 10.7305 204.4C10.9705 204.36 11.2305 204.31 11.5105 204.26C11.8005 204.21 12.1105 204.18 12.4505 204.13C13.1205 204.04 13.8805 203.92 14.7305 203.86C15.1505 203.82 15.6005 203.78 16.0605 203.74C16.5205 203.7 17.0105 203.69 17.5105 203.67C18.5105 203.61 19.5805 203.62 20.7105 203.62C22.9605 203.68 25.4405 203.86 28.0105 204.27C30.5805 204.69 32.9905 205.29 35.1505 205.94C36.2205 206.29 37.2405 206.61 38.1705 206.99C38.6405 207.17 39.0905 207.33 39.5205 207.51C39.9505 207.7 40.3605 207.87 40.7505 208.04C41.5405 208.36 42.2205 208.72 42.8305 209.02C43.1305 209.17 43.4205 209.3 43.6805 209.44C43.9305 209.58 44.1705 209.71 44.3805 209.82C44.7905 210.04 45.1205 210.22 45.3505 210.34C45.4505 210.39 45.5405 210.44 45.6005 210.47C45.6605 210.5 45.6905 210.51 45.6905 210.51C45.6905 210.51 45.6605 210.49 45.6105 210.46C45.5505 210.42 45.4705 210.37 45.3605 210.31C45.1305 210.18 44.8105 209.99 44.4105 209.76C44.2005 209.64 43.9705 209.51 43.7205 209.37C43.4605 209.23 43.1805 209.09 42.8805 208.94C42.2705 208.64 41.5905 208.27 40.8005 207.94C40.4105 207.77 40.0005 207.59 39.5705 207.4C39.1405 207.21 38.6805 207.05 38.2205 206.87C37.2905 206.49 36.2605 206.17 35.1905 205.81C33.0305 205.15 30.6105 204.55 28.0305 204.12C25.4505 203.72 22.9705 203.53 20.7105 203.48C19.5805 203.48 18.5105 203.47 17.5005 203.54C17.0005 203.57 16.5105 203.58 16.0505 203.62C15.5905 203.67 15.1405 203.71 14.7105 203.75C13.8605 203.82 13.1005 203.95 12.4205 204.05C12.0805 204.1 11.7705 204.14 11.4905 204.19C11.2105 204.25 10.9505 204.3 10.7105 204.35C10.2505 204.44 9.89051 204.52 9.63051 204.57C9.51051 204.6 9.42051 204.62 9.35051 204.63C9.30051 204.64 9.27051 204.65 9.27051 204.65Z" fill="#263238"></path><path d="M97.38 176.88C97.38 176.88 97.35 176.86 97.3 176.82C97.24 176.78 97.16 176.73 97.06 176.67C96.84 176.54 96.53 176.35 96.13 176.12C95.93 176 95.7 175.87 95.46 175.73C95.21 175.59 94.93 175.45 94.64 175.3C94.05 175 93.38 174.63 92.61 174.3C92.23 174.13 91.83 173.94 91.41 173.75C90.99 173.56 90.54 173.4 90.09 173.21C89.18 172.83 88.18 172.5 87.13 172.14C85.01 171.47 82.65 170.86 80.12 170.43C77.59 170.02 75.15 169.83 72.94 169.78C71.83 169.78 70.78 169.77 69.79 169.83C69.3 169.86 68.82 169.87 68.36 169.91C67.9 169.95 67.47 170 67.05 170.04C66.21 170.11 65.47 170.24 64.81 170.33C64.48 170.38 64.17 170.42 63.89 170.47C63.61 170.53 63.36 170.58 63.13 170.63C62.68 170.72 62.33 170.8 62.07 170.85C61.96 170.88 61.87 170.9 61.8 170.91C61.74 170.92 61.71 170.93 61.71 170.94C61.71 170.94 61.74 170.94 61.81 170.93C61.88 170.92 61.97 170.9 62.09 170.89C62.34 170.84 62.7 170.78 63.15 170.7C63.38 170.66 63.64 170.61 63.92 170.56C64.2 170.51 64.51 170.48 64.84 170.43C65.5 170.35 66.25 170.22 67.08 170.16C67.5 170.12 67.93 170.08 68.39 170.04C68.85 170 69.32 170 69.81 169.97C70.79 169.91 71.84 169.93 72.95 169.93C75.16 169.99 77.59 170.19 80.11 170.6C82.63 171.03 84.99 171.63 87.1 172.29C88.15 172.65 89.15 172.97 90.06 173.34C90.52 173.52 90.96 173.68 91.38 173.87C91.8 174.06 92.2 174.23 92.58 174.4C93.35 174.72 94.02 175.09 94.61 175.38C94.91 175.53 95.19 175.66 95.44 175.8C95.69 175.94 95.91 176.07 96.12 176.18C96.52 176.4 96.84 176.58 97.06 176.7C97.16 176.75 97.24 176.8 97.31 176.83C97.34 176.87 97.37 176.88 97.38 176.88Z" fill="#263238"></path><path d="M96.0997 183.65C96.0997 183.65 96.0697 183.63 96.0197 183.59C95.9597 183.55 95.8797 183.5 95.7797 183.44C95.5497 183.31 95.2397 183.12 94.8297 182.88C94.6197 182.76 94.3897 182.63 94.1397 182.48C93.8897 182.34 93.5997 182.2 93.2997 182.04C92.6897 181.73 92.0197 181.36 91.2297 181.02C90.8397 180.84 90.4297 180.66 90.0097 180.47C89.5797 180.28 89.1297 180.11 88.6597 179.92C87.7297 179.53 86.7097 179.2 85.6397 178.83C83.4797 178.15 81.0697 177.52 78.4997 177.08C75.9197 176.65 73.4397 176.45 71.1797 176.38C70.0497 176.38 68.9697 176.35 67.9697 176.41C67.4697 176.43 66.9797 176.44 66.5197 176.48C66.0597 176.52 65.6097 176.56 65.1797 176.6C64.3297 176.66 63.5597 176.79 62.8897 176.88C62.5497 176.93 62.2397 176.97 61.9497 177.02C61.6697 177.08 61.3997 177.13 61.1697 177.17C60.7097 177.26 60.3497 177.33 60.0897 177.38C59.9697 177.4 59.8797 177.42 59.8097 177.44C59.7497 177.45 59.7197 177.46 59.7197 177.47C59.7197 177.47 59.7497 177.47 59.8197 177.46C59.8897 177.45 59.9897 177.43 60.0997 177.42C60.3597 177.38 60.7197 177.31 61.1797 177.24C61.4197 177.2 61.6797 177.15 61.9597 177.1C62.2497 177.06 62.5597 177.02 62.8997 176.98C63.5697 176.9 64.3397 176.78 65.1897 176.72C65.6197 176.69 66.0597 176.65 66.5197 176.61C66.9797 176.58 67.4697 176.57 67.9697 176.55C68.9697 176.49 70.0397 176.52 71.1697 176.53C73.4197 176.61 75.8997 176.82 78.4597 177.24C81.0197 177.69 83.4297 178.3 85.5797 178.97C86.6497 179.33 87.6697 179.66 88.5897 180.04C89.0597 180.23 89.5097 180.39 89.9397 180.58C90.3697 180.77 90.7697 180.95 91.1597 181.12C91.9497 181.45 92.6297 181.82 93.2397 182.11C93.5397 182.26 93.8297 182.4 94.0797 182.53C94.3297 182.67 94.5597 182.8 94.7697 182.92C95.1797 183.15 95.4997 183.32 95.7297 183.45C95.8297 183.51 95.9197 183.55 95.9797 183.58C96.0697 183.64 96.0997 183.66 96.0997 183.65Z" fill="#263238"></path><path d="M95.92 190.75C95.92 190.75 95.89 190.73 95.84 190.69C95.78 190.65 95.7 190.6 95.6 190.54C95.37 190.41 95.06 190.22 94.65 189.98C94.44 189.86 94.21 189.73 93.96 189.58C93.71 189.44 93.42 189.3 93.12 189.14C92.51 188.83 91.84 188.46 91.05 188.12C90.66 187.94 90.25 187.76 89.83 187.57C89.4 187.38 88.95 187.21 88.48 187.02C87.55 186.63 86.53 186.3 85.46 185.93C83.3 185.25 80.89 184.62 78.32 184.18C75.74 183.75 73.26 183.55 71 183.48C69.87 183.48 68.79 183.45 67.79 183.51C67.29 183.53 66.8 183.54 66.34 183.58C65.88 183.62 65.43 183.66 65 183.7C64.15 183.76 63.38 183.89 62.71 183.98C62.37 184.03 62.06 184.07 61.77 184.12C61.49 184.18 61.22 184.23 60.99 184.27C60.53 184.36 60.17 184.43 59.91 184.48C59.79 184.5 59.7 184.52 59.63 184.54C59.57 184.55 59.54 184.56 59.54 184.57C59.54 184.57 59.57 184.57 59.64 184.56C59.71 184.55 59.81 184.53 59.92 184.52C60.18 184.48 60.54 184.41 61 184.34C61.24 184.3 61.5 184.25 61.78 184.2C62.07 184.16 62.38 184.12 62.72 184.08C63.39 184 64.16 183.88 65.01 183.82C65.44 183.79 65.88 183.75 66.34 183.71C66.8 183.68 67.29 183.67 67.79 183.65C68.79 183.59 69.86 183.62 70.99 183.63C73.24 183.71 75.72 183.92 78.28 184.34C80.84 184.79 83.25 185.4 85.4 186.07C86.47 186.43 87.49 186.76 88.41 187.14C88.88 187.33 89.33 187.49 89.76 187.68C90.19 187.87 90.59 188.05 90.98 188.22C91.77 188.55 92.45 188.92 93.06 189.21C93.36 189.36 93.65 189.5 93.9 189.63C94.15 189.77 94.38 189.9 94.59 190.02C95 190.25 95.32 190.42 95.55 190.55C95.65 190.61 95.74 190.65 95.8 190.68C95.89 190.73 95.92 190.75 95.92 190.75Z" fill="#263238"></path><path d="M94.4698 197.45C94.4698 197.45 94.4398 197.43 94.3898 197.39C94.3298 197.35 94.2498 197.3 94.1498 197.24C93.9198 197.11 93.6098 196.92 93.1998 196.68C92.9898 196.56 92.7598 196.43 92.5098 196.28C92.2598 196.14 91.9698 196 91.6698 195.84C91.0598 195.53 90.3898 195.16 89.5998 194.82C89.2098 194.64 88.7998 194.46 88.3798 194.27C87.9498 194.08 87.4998 193.91 87.0298 193.72C86.0998 193.33 85.0798 193 84.0098 192.63C81.8498 191.95 79.4398 191.32 76.8699 190.88C74.2899 190.45 71.8099 190.25 69.5499 190.18C68.4199 190.18 67.3398 190.15 66.3398 190.21C65.8398 190.24 65.3498 190.24 64.8898 190.28C64.4298 190.32 63.9799 190.36 63.5499 190.4C62.6999 190.46 61.9298 190.59 61.2598 190.68C60.9198 190.73 60.6098 190.77 60.3198 190.82C60.0398 190.88 59.7798 190.93 59.5398 190.97C59.0798 191.06 58.7198 191.13 58.4598 191.18C58.3398 191.2 58.2498 191.22 58.1798 191.24C58.1198 191.25 58.0898 191.26 58.0898 191.27C58.0898 191.27 58.1198 191.27 58.1898 191.26C58.2598 191.25 58.3598 191.23 58.4698 191.22C58.7298 191.18 59.0899 191.11 59.5499 191.04C59.7899 191 60.0498 190.95 60.3298 190.9C60.6198 190.86 60.9298 190.82 61.2698 190.78C61.9398 190.7 62.7098 190.58 63.5598 190.52C63.9898 190.48 64.4298 190.45 64.8898 190.41C65.3498 190.38 65.8398 190.37 66.3398 190.35C67.3398 190.29 68.4098 190.32 69.5398 190.33C71.7898 190.41 74.2698 190.62 76.8298 191.04C79.3898 191.49 81.7998 192.1 83.9498 192.77C85.0198 193.13 86.0398 193.46 86.9598 193.84C87.4298 194.03 87.8798 194.19 88.3098 194.38C88.7398 194.57 89.1398 194.75 89.5298 194.92C90.3198 195.25 90.9998 195.62 91.6098 195.91C91.9098 196.06 92.1998 196.2 92.4498 196.33C92.6998 196.47 92.9298 196.6 93.1398 196.72C93.5498 196.95 93.8698 197.12 94.0998 197.25C94.1998 197.31 94.2898 197.35 94.3498 197.38C94.4298 197.44 94.4599 197.46 94.4698 197.45Z" fill="#263238"></path><path d="M93.7696 204.39C93.7696 204.39 93.7397 204.37 93.6897 204.33C93.6297 204.29 93.5496 204.24 93.4496 204.18C93.2196 204.05 92.9096 203.86 92.4996 203.62C92.2896 203.5 92.0596 203.37 91.8096 203.22C91.5596 203.08 91.2696 202.94 90.9697 202.78C90.3596 202.47 89.6897 202.1 88.8997 201.76C88.5097 201.58 88.0996 201.4 87.6796 201.21C87.2496 201.02 86.7997 200.85 86.3297 200.66C85.3997 200.27 84.3796 199.94 83.3096 199.57C81.1496 198.89 78.7396 198.26 76.1696 197.82C73.5896 197.39 71.1096 197.19 68.8496 197.12C67.7196 197.12 66.6396 197.09 65.6396 197.15C65.1396 197.18 64.6497 197.18 64.1897 197.22C63.7297 197.26 63.2796 197.3 62.8496 197.34C61.9996 197.4 61.2296 197.53 60.5596 197.62C60.2196 197.67 59.9097 197.71 59.6197 197.76C59.3397 197.82 59.0696 197.87 58.8396 197.91C58.3796 198 58.0197 198.07 57.7597 198.12C57.6397 198.14 57.5497 198.16 57.4797 198.18C57.4197 198.19 57.3896 198.2 57.3896 198.21C57.3896 198.21 57.4196 198.21 57.4896 198.2C57.5596 198.19 57.6596 198.17 57.7696 198.16C58.0296 198.12 58.3896 198.05 58.8496 197.98C59.0896 197.94 59.3496 197.89 59.6296 197.84C59.9196 197.8 60.2296 197.76 60.5696 197.72C61.2396 197.64 62.0096 197.52 62.8596 197.46C63.2896 197.43 63.7297 197.39 64.1897 197.35C64.6497 197.32 65.1396 197.31 65.6396 197.29C66.6396 197.23 67.7096 197.26 68.8396 197.27C71.0896 197.35 73.5696 197.56 76.1296 197.98C78.6896 198.43 81.0996 199.04 83.2496 199.71C84.3196 200.07 85.3397 200.4 86.2597 200.78C86.7297 200.97 87.1796 201.13 87.6096 201.32C88.0396 201.51 88.4397 201.69 88.8297 201.86C89.6197 202.19 90.2997 202.56 90.9097 202.85C91.2097 203 91.4996 203.14 91.7496 203.27C91.9996 203.41 92.2297 203.54 92.4397 203.66C92.8497 203.89 93.1697 204.06 93.3997 204.19C93.4996 204.25 93.5896 204.29 93.6497 204.32C93.7397 204.38 93.7696 204.39 93.7696 204.39Z" fill="#263238"></path><path d="M92.5802 211.18C92.5802 211.18 92.5502 211.16 92.5002 211.12C92.4402 211.08 92.3602 211.03 92.2602 210.97C92.0302 210.84 91.7202 210.65 91.3102 210.41C91.1002 210.29 90.8702 210.16 90.6202 210.01C90.3702 209.87 90.0802 209.73 89.7802 209.57C89.1702 209.26 88.5002 208.89 87.7102 208.55C87.3202 208.37 86.9102 208.19 86.4902 208C86.0602 207.81 85.6102 207.64 85.1402 207.45C84.2102 207.06 83.1902 206.73 82.1202 206.36C79.9602 205.68 77.5502 205.05 74.9802 204.61C72.4002 204.18 69.9202 203.98 67.6602 203.91C66.5302 203.91 65.4502 203.88 64.4502 203.94C63.9502 203.97 63.4602 203.97 63.0002 204.01C62.5402 204.05 62.0902 204.09 61.6602 204.13C60.8102 204.19 60.0402 204.32 59.3702 204.41C59.0302 204.46 58.7202 204.5 58.4302 204.55C58.1502 204.61 57.8802 204.66 57.6502 204.7C57.1902 204.79 56.8302 204.86 56.5702 204.91C56.4502 204.93 56.3602 204.95 56.2902 204.97C56.2302 204.98 56.2002 204.99 56.2002 205C56.2002 205 56.2302 205 56.3002 204.99C56.3702 204.98 56.4702 204.96 56.5802 204.95C56.8402 204.91 57.2002 204.84 57.6602 204.77C57.9002 204.73 58.1602 204.68 58.4402 204.63C58.7302 204.59 59.0402 204.55 59.3802 204.51C60.0502 204.43 60.8202 204.31 61.6702 204.25C62.1002 204.22 62.5402 204.18 63.0002 204.14C63.4602 204.11 63.9502 204.1 64.4502 204.08C65.4502 204.02 66.5202 204.05 67.6502 204.06C69.9002 204.14 72.3802 204.35 74.9402 204.77C77.5002 205.22 79.9102 205.83 82.0602 206.5C83.1302 206.86 84.1502 207.19 85.0702 207.57C85.5402 207.76 85.9902 207.92 86.4202 208.11C86.8502 208.3 87.2502 208.48 87.6402 208.65C88.4302 208.98 89.1102 209.35 89.7202 209.64C90.0202 209.79 90.3102 209.93 90.5602 210.06C90.8102 210.2 91.0402 210.33 91.2502 210.45C91.6602 210.68 91.9802 210.85 92.2102 210.98C92.3102 211.04 92.4002 211.08 92.4602 211.11C92.5502 211.17 92.5802 211.18 92.5802 211.18Z" fill="#263238"></path><path d="M91.7101 218.06C91.7101 218.06 91.6801 218.04 91.6301 218C91.5701 217.96 91.4901 217.91 91.3901 217.85C91.1601 217.72 90.8501 217.53 90.4401 217.29C90.2301 217.17 90.0001 217.04 89.7501 216.89C89.5001 216.75 89.2101 216.61 88.9101 216.45C88.3001 216.14 87.6301 215.77 86.8401 215.43C86.4501 215.25 86.0401 215.07 85.6201 214.88C85.1901 214.69 84.7401 214.52 84.2701 214.33C83.3401 213.94 82.3201 213.61 81.2501 213.24C79.0901 212.56 76.6801 211.93 74.1101 211.49C71.5301 211.06 69.0501 210.86 66.7901 210.79C65.6601 210.79 64.5801 210.76 63.5801 210.82C63.0801 210.85 62.5901 210.85 62.1301 210.89C61.6701 210.93 61.2201 210.97 60.7901 211.01C59.9401 211.07 59.1701 211.2 58.5001 211.29C58.1601 211.34 57.8501 211.38 57.5601 211.43C57.2801 211.49 57.0101 211.54 56.7801 211.58C56.3201 211.67 55.9601 211.74 55.7001 211.79C55.5801 211.81 55.4901 211.83 55.4201 211.85C55.3601 211.86 55.3301 211.87 55.3301 211.88C55.3301 211.88 55.3601 211.88 55.4301 211.87C55.5001 211.86 55.6001 211.84 55.7101 211.83C55.9701 211.79 56.3301 211.72 56.7901 211.65C57.0301 211.61 57.2901 211.56 57.5701 211.51C57.8601 211.47 58.1701 211.43 58.5101 211.39C59.1801 211.31 59.9501 211.19 60.8001 211.13C61.2301 211.1 61.6701 211.06 62.1301 211.02C62.5901 210.99 63.0801 210.98 63.5801 210.96C64.5801 210.9 65.6501 210.93 66.7801 210.94C69.0301 211.02 71.5101 211.23 74.0701 211.65C76.6301 212.1 79.0401 212.71 81.1901 213.38C82.2601 213.74 83.2801 214.07 84.2001 214.45C84.6701 214.64 85.1201 214.8 85.5501 214.99C85.9801 215.18 86.3801 215.36 86.7701 215.53C87.5601 215.86 88.2401 216.23 88.8501 216.52C89.1501 216.67 89.4401 216.81 89.6901 216.94C89.9401 217.08 90.1701 217.21 90.3801 217.33C90.7901 217.56 91.1101 217.73 91.3401 217.86C91.4401 217.92 91.5301 217.96 91.5901 217.99C91.6801 218.05 91.7101 218.07 91.7101 218.06Z" fill="#263238"></path><path d="M11.9506 215.92C11.1106 219.11 9.94062 221.51 8.14062 224.28C10.3106 223.65 12.3106 222.47 13.9206 220.88C14.3606 221.97 14.2706 224.27 14.0306 225.65C16.8106 223.64 19.2206 220.22 20.2806 216.95L11.9506 215.92Z" fill="#455A64"></path><path d="M5.11035 215.19C5.11035 215.19 5.13035 215.2 5.18035 215.21C5.24035 215.22 5.31035 215.23 5.40035 215.24C5.61035 215.26 5.89035 215.3 6.25035 215.34C7.00035 215.43 8.06035 215.55 9.36035 215.69C11.9904 215.99 15.6203 216.43 19.6203 216.96C23.6203 217.5 27.2403 218.03 29.8503 218.45C31.1404 218.66 32.2003 218.83 32.9403 218.95C33.2903 219.01 33.5704 219.05 33.7803 219.09C33.8703 219.1 33.9404 219.11 34.0004 219.12C34.0504 219.13 34.0804 219.13 34.0804 219.12C34.0804 219.12 34.0603 219.11 34.0103 219.1C33.9503 219.09 33.8804 219.07 33.7904 219.05C33.5904 219.01 33.3104 218.95 32.9504 218.88C32.2204 218.74 31.1703 218.54 29.8703 218.32C27.2603 217.87 23.6504 217.32 19.6504 216.78C15.6504 216.25 12.0204 215.82 9.39035 215.55C8.07035 215.41 7.01035 215.31 6.27035 215.25C5.91035 215.22 5.63035 215.2 5.42035 215.18C5.33035 215.17 5.26035 215.17 5.20035 215.17C5.14035 215.18 5.11035 215.18 5.11035 215.19Z" fill="#263238"></path><path d="M354.1 74.7701C354.11 74.7701 354.09 74.9001 354.04 75.1401C353.98 75.4101 353.91 75.7601 353.81 76.1901C353.71 76.6501 353.58 77.2101 353.39 77.8401C353.2 78.4801 353.02 79.2101 352.72 80.0001C352.58 80.4001 352.44 80.8101 352.29 81.2401C352.14 81.6701 351.94 82.1101 351.76 82.5601C351.41 83.4801 350.95 84.4301 350.48 85.4301C349.49 87.4101 348.27 89.5201 346.81 91.6201C345.33 93.7001 343.74 95.5601 342.21 97.1601C341.42 97.9401 340.69 98.6901 339.94 99.3301C339.57 99.6501 339.23 99.9801 338.87 100.27C338.51 100.56 338.17 100.83 337.85 101.09C337.21 101.63 336.58 102.05 336.04 102.44C335.51 102.84 335.03 103.15 334.63 103.39C334.25 103.62 333.95 103.81 333.72 103.96C333.51 104.09 333.4 104.15 333.39 104.14C333.38 104.13 333.49 104.05 333.69 103.91C333.92 103.75 334.21 103.55 334.57 103.3C334.96 103.04 335.43 102.72 335.95 102.31C336.48 101.91 337.09 101.47 337.72 100.93C338.04 100.66 338.38 100.39 338.73 100.1C339.08 99.8101 339.42 99.4801 339.78 99.1501C340.52 98.5101 341.24 97.7501 342.02 96.9701C343.53 95.3701 345.1 93.5201 346.57 91.4501C348.03 89.3701 349.24 87.2701 350.24 85.3101C350.71 84.3201 351.18 83.3801 351.54 82.4701C351.73 82.0201 351.92 81.5901 352.08 81.1601C352.24 80.7301 352.39 80.3201 352.53 79.9301C352.83 79.1501 353.03 78.4301 353.24 77.8001C353.45 77.1701 353.6 76.6201 353.71 76.1701C353.83 75.7401 353.92 75.4001 353.99 75.1301C354.05 74.8901 354.09 74.7601 354.1 74.7701Z" fill="#263238"></path><path d="M353.721 86.9401C353.741 86.9501 353.661 87.1601 353.501 87.5401C353.341 87.9201 353.091 88.4601 352.751 89.1201C352.081 90.4401 351.041 92.21 349.691 94.02C348.331 95.83 346.931 97.33 345.851 98.34C345.311 98.85 344.861 99.2401 344.541 99.5001C344.221 99.7601 344.04 99.9001 344.02 99.88C343.99 99.84 344.661 99.2301 345.701 98.1801C346.731 97.1301 348.101 95.6201 349.441 93.8301C350.781 92.0301 351.841 90.3001 352.561 89.0101C353.271 87.7401 353.671 86.9201 353.721 86.9401Z" fill="#263238"></path><path d="M270.803 19.6994L266.382 22.9033L271.381 29.8028L275.803 26.5989L270.803 19.6994Z" fill="#263238"></path><path d="M274.66 20.0499L265.55 26.6499L260.16 19.2099C262.78 16.1099 265.79 13.8599 269.27 12.6099L274.66 20.0499Z" fill="#C4161C"></path><path d="M267.08 25.5499C266.93 25.6599 265.55 24.0099 263.99 21.8799C262.43 19.7499 261.28 17.9299 261.42 17.8299C261.57 17.7199 262.95 19.3699 264.51 21.4999C266.07 23.6299 267.22 25.4399 267.08 25.5499Z" fill="#263238"></path><path d="M268.81 24.2898C268.66 24.3898 267.31 22.6598 265.77 20.4398C264.23 18.2098 263.09 16.3498 263.19 16.2698C263.37 16.1198 264.77 17.8498 266.31 20.0698C267.85 22.2898 268.96 24.1898 268.81 24.2898Z" fill="#263238"></path><path d="M271.13 22.6199C270.98 22.7199 269.62 20.9699 268.08 18.7099C266.54 16.4499 265.4 14.5499 265.52 14.4699C265.69 14.3399 267.08 16.0899 268.62 18.3499C270.15 20.5999 271.27 22.5199 271.13 22.6199Z" fill="#263238"></path><path d="M273.24 21.0399C273.09 21.1399 271.72 19.4799 270.17 17.3299C268.62 15.1799 267.49 13.3499 267.63 13.2399C267.78 13.1399 269.15 14.7999 270.7 16.9499C272.25 19.1099 273.38 20.9399 273.24 21.0399Z" fill="#263238"></path><path d="M343.523 30.7376L340.092 26.4902L333.464 31.8442L336.895 36.0915L343.523 30.7376Z" fill="#263238"></path><path d="M343.38 34.6199L336.31 25.8699L343.46 20.0999C346.69 22.5499 349.1 25.4399 350.53 28.8499L343.38 34.6199Z" fill="#C4161C"></path><path d="M337.49 27.3297C337.38 27.1897 338.94 25.7197 340.99 24.0497C343.04 22.3797 344.79 21.1297 344.9 21.2697C345.01 21.4097 343.45 22.8797 341.4 24.5497C339.36 26.2197 337.6 27.4697 337.49 27.3297Z" fill="#263238"></path><path d="M338.84 28.9998C338.73 28.8598 340.39 27.4098 342.53 25.7598C344.68 24.1098 346.48 22.8698 346.56 22.9698C346.72 23.1398 345.07 24.6298 342.93 26.2798C340.78 27.9298 338.95 29.1398 338.84 28.9998Z" fill="#263238"></path><path d="M340.63 31.2199C340.52 31.0799 342.2 29.6199 344.37 27.9699C346.55 26.3099 348.38 25.0799 348.47 25.1899C348.61 25.3499 346.93 26.8299 344.76 28.4899C342.6 30.1399 340.74 31.3599 340.63 31.2199Z" fill="#263238"></path><path d="M342.31 33.2399C342.2 33.0999 343.78 31.6399 345.85 29.9799C347.92 28.3199 349.69 27.0899 349.8 27.2299C349.91 27.3699 348.33 28.8299 346.26 30.4899C344.2 32.1499 342.43 33.3799 342.31 33.2399Z" fill="#263238"></path><path d="M310.377 9.03522L303.93 8.49756L303.091 18.5522L309.539 19.0899L310.377 9.03522Z" fill="#263238"></path><path d="M313.59 12.34L300.32 11.23L301.22 0.389964C305.96 -0.370036 310.4 -0.0700358 314.49 1.49996L313.59 12.34Z" fill="#C4161C"></path><path d="M314.64 1.55994C314.73 1.68994 311.71 3.03994 307.76 2.70994C303.8 2.41994 301.03 0.61994 301.14 0.49994C301.22 0.30994 304.02 1.78994 307.81 2.05994C311.6 2.37994 314.59 1.35994 314.64 1.55994Z" fill="#263238"></path><path d="M304.7 11.5699C304.52 11.5499 304.55 9.45993 304.76 6.89993C304.97 4.32993 305.29 2.25993 305.47 2.27993C305.65 2.29993 305.62 4.38993 305.41 6.94993C305.2 9.51993 304.88 11.5899 304.7 11.5699Z" fill="#263238"></path><path d="M307.221 11.8399C307.041 11.8299 307.071 9.71991 307.281 7.14991C307.501 4.56991 307.821 2.48991 307.991 2.50991C308.171 2.51991 308.141 4.62991 307.931 7.20991C307.721 9.77991 307.401 11.8599 307.221 11.8399Z" fill="#263238"></path><path d="M309.75 12.0101C309.57 12.0001 309.6 9.89007 309.81 7.32007C310.03 4.74007 310.35 2.66007 310.52 2.68007C310.7 2.70007 310.67 4.80007 310.46 7.38007C310.25 9.95007 309.93 12.0301 309.75 12.0101Z" fill="#263238"></path><path d="M311.85 12.1899C311.67 12.1799 311.71 9.89989 311.95 7.11989C312.18 4.32989 312.52 2.08989 312.7 2.09989C312.88 2.10989 312.84 4.38989 312.6 7.16989C312.37 9.95989 312.03 12.1999 311.85 12.1899Z" fill="#263238"></path><path d="M302.32 11.33C302.14 11.32 302.18 9.04002 302.42 6.26002C302.65 3.47002 302.99 1.23002 303.17 1.24002C303.35 1.25002 303.31 3.53002 303.07 6.31002C302.83 9.10002 302.5 11.34 302.32 11.33Z" fill="#263238"></path><path d="M348.77 66.4499C346.61 92.3399 323.87 111.57 297.98 109.41C272.09 107.25 252.86 84.5099 255.01 58.6199C257.17 32.7299 279.91 13.4999 305.8 15.6599C331.69 17.8199 350.93 40.5599 348.77 66.4499Z" fill="#C4161C"></path><path d="M329.853 90.1016C345.282 74.6721 345.282 49.656 329.853 34.2266C314.423 18.7971 289.407 18.7971 273.978 34.2265C258.548 49.656 258.548 74.6721 273.978 90.1016C289.407 105.531 314.423 105.531 329.853 90.1016Z" fill="white"></path><path d="M341.29 65.45C341.29 65.45 341.27 65.23 341.28 64.81C341.29 64.36 341.3 63.74 341.31 62.93C341.32 62.51 341.33 62.05 341.34 61.55C341.33 61.04 341.26 60.49 341.22 59.89C341.13 58.69 341.06 57.3 340.73 55.76C340.29 52.66 339.16 48.96 337.23 44.97C335.28 40.99 332.35 36.77 328.19 33.04C324.04 29.35 318.69 26.05 312.33 24.37C310.73 24.01 309.13 23.54 307.43 23.39C306.59 23.29 305.75 23.14 304.89 23.08C304.03 23.05 303.16 23.03 302.29 23C301.85 22.99 301.42 22.95 300.98 22.98L299.66 23.07C298.78 23.14 297.89 23.17 297 23.28C295.24 23.61 293.42 23.81 291.66 24.38C289.86 24.8 288.14 25.52 286.38 26.2C285.52 26.58 284.68 27.03 283.83 27.45C282.96 27.84 282.15 28.36 281.34 28.88C279.66 29.84 278.16 31.09 276.6 32.28C275.17 33.62 273.67 34.93 272.4 36.49C269.81 39.52 267.48 42.94 265.92 46.78C264.32 50.59 263.29 54.7 262.88 58.93C262.58 63.17 262.92 67.39 263.86 71.42C264.76 75.47 266.49 79.22 268.54 82.65C269.53 84.4 270.8 85.93 271.99 87.5C273.33 88.93 274.61 90.41 276.11 91.64C276.82 92.29 277.54 92.93 278.33 93.46C279.11 94.01 279.85 94.6 280.64 95.12C282.27 96.07 283.84 97.08 285.55 97.79C287.19 98.64 288.95 99.14 290.63 99.76C291.49 100.01 292.37 100.19 293.22 100.41L294.51 100.72C294.94 100.81 295.38 100.85 295.81 100.91C296.68 101.03 297.53 101.14 298.39 101.26C299.24 101.34 300.1 101.33 300.95 101.38C302.64 101.51 304.31 101.32 305.94 101.22C312.48 100.62 318.31 98.25 323.01 95.3C327.73 92.31 331.32 88.63 333.9 85.03C336.46 81.41 338.19 77.94 339.14 74.97C339.72 73.51 340.01 72.15 340.3 70.98C340.44 70.39 340.59 69.86 340.69 69.36C340.76 68.86 340.83 68.4 340.89 67.99C341.01 67.19 341.1 66.58 341.17 66.13C341.24 65.66 341.29 65.45 341.29 65.45C341.29 65.45 341.28 65.67 341.24 66.09C341.19 66.54 341.12 67.16 341.02 67.96C340.97 68.37 340.91 68.83 340.85 69.34C340.76 69.84 340.62 70.38 340.49 70.98C340.22 72.16 339.94 73.53 339.38 75.01C338.46 78.02 336.76 81.53 334.2 85.2C331.63 88.85 328.02 92.6 323.26 95.64C318.52 98.66 312.63 101.08 305.99 101.71C304.33 101.81 302.65 102.02 300.93 101.89C300.07 101.85 299.2 101.86 298.34 101.78C297.48 101.67 296.6 101.55 295.73 101.43C295.29 101.36 294.85 101.33 294.41 101.24L293.1 100.93C292.23 100.71 291.34 100.54 290.47 100.28C288.76 99.66 286.97 99.16 285.31 98.3C283.58 97.58 281.97 96.57 280.32 95.6C279.52 95.08 278.76 94.48 277.97 93.92C277.16 93.38 276.44 92.73 275.71 92.07C274.19 90.83 272.89 89.33 271.52 87.87C270.31 86.28 269.02 84.72 268.01 82.95C265.92 79.47 264.16 75.66 263.24 71.54C262.28 67.45 261.93 63.15 262.24 58.84C262.66 54.54 263.71 50.36 265.34 46.49C266.93 42.59 269.29 39.11 271.93 36.03C273.22 34.45 274.75 33.12 276.21 31.76C277.8 30.55 279.33 29.29 281.03 28.32C281.86 27.79 282.68 27.27 283.56 26.87C284.43 26.45 285.28 25.99 286.16 25.6C287.95 24.92 289.7 24.19 291.53 23.77C293.32 23.2 295.16 23 296.95 22.67C297.85 22.56 298.76 22.54 299.65 22.46L300.99 22.37C301.44 22.35 301.88 22.39 302.32 22.4C303.2 22.43 304.08 22.46 304.95 22.49C305.82 22.55 306.67 22.71 307.53 22.81C309.24 22.97 310.87 23.45 312.49 23.82C318.93 25.55 324.33 28.91 328.51 32.67C332.7 36.46 335.64 40.76 337.57 44.78C339.48 48.82 340.58 52.57 340.99 55.69C341.3 57.24 341.35 58.64 341.42 59.85C341.45 60.45 341.5 61.01 341.5 61.52C341.48 62.03 341.46 62.49 341.44 62.91C341.4 63.72 341.37 64.34 341.35 64.79C341.32 65.23 341.29 65.45 341.29 65.45Z" fill="#263238"></path><path d="M331.72 62.9899C328.63 62.7799 326.14 62.4299 326.15 62.1999C326.16 61.9699 328.68 61.8399 331.77 61.9199C334.86 61.9999 337.35 62.3499 337.34 62.7099C337.32 63.0799 334.81 63.1999 331.72 62.9899Z" fill="#263238"></path><path d="M322.05 82.7698C320 80.4498 318.48 78.4398 318.65 78.2898C318.82 78.1298 320.69 79.8198 322.84 82.0398C324.98 84.2698 326.51 86.2698 326.24 86.5198C325.97 86.7598 324.1 85.0798 322.05 82.7698Z" fill="#263238"></path><path d="M301.27 90.0297C301.45 86.9397 301.77 84.4497 302 84.4597C302.23 84.4697 302.38 86.9797 302.34 90.0697C302.3 93.1597 301.97 95.6597 301.61 95.6497C301.25 95.6297 301.1 93.1097 301.27 90.0297Z" fill="#263238"></path><path d="M281.39 80.5699C283.69 78.4999 285.68 76.9499 285.83 77.1199C285.99 77.2899 284.33 79.1799 282.12 81.3499C279.92 83.5199 277.93 85.0599 277.68 84.7999C277.44 84.5399 279.1 82.6399 281.39 80.5699Z" fill="#263238"></path><path d="M273.91 59.8698C277 60.0098 279.5 60.3098 279.49 60.5398C279.49 60.7698 276.98 60.9498 273.88 60.9398C270.79 60.9298 268.29 60.6298 268.29 60.2698C268.3 59.9098 270.82 59.7298 273.91 59.8698Z" fill="#263238"></path><path d="M283.14 39.8897C285.24 42.1597 286.8 44.1397 286.64 44.2997C286.47 44.4597 284.56 42.8197 282.37 40.6398C280.18 38.4597 278.61 36.4898 278.87 36.2398C279.13 35.9798 281.04 37.6197 283.14 39.8897Z" fill="#263238"></path><path d="M303.761 32.1799C303.651 35.2699 303.38 37.7699 303.15 37.7699C302.92 37.7699 302.71 35.2599 302.69 32.1699C302.67 29.0799 302.94 26.5799 303.3 26.5799C303.66 26.5699 303.861 29.0899 303.761 32.1799Z" fill="#263238"></path><path d="M323.84 41.1898C321.59 43.3098 319.63 44.8998 319.47 44.7298C319.31 44.5698 320.93 42.6398 323.08 40.4198C325.23 38.1998 327.19 36.6198 327.45 36.8798C327.71 37.1398 326.09 39.0698 323.84 41.1898Z" fill="#263238"></path><path d="M314.64 42.1599C314.36 47.9499 313.7 53.7199 312.67 59.4199C312.3 61.4799 311.87 63.5699 310.92 65.4399C309.97 67.3099 308.43 68.9699 306.44 69.6199C304.45 70.2799 302 69.7299 300.79 68.0199L314.64 42.1599Z" fill="#E0E0E0"></path><path d="M301.33 58.9898L317.64 36.0898L306.74 62.5698L302.22 63.5198L301.33 58.9898Z" fill="#C4161C"></path><g opacity="0.4"><path d="M317.64 36.0898L304.98 59.8198L306.74 62.5698L317.64 36.0898Z" fill="black"></path></g><path d="M306.82 63.8997C306.61 66.4397 304.37 68.3297 301.83 68.1197C299.29 67.9097 297.4 65.6697 297.61 63.1297C297.82 60.5897 300.06 58.6997 302.6 58.9097C305.14 59.1297 307.03 61.3597 306.82 63.8997Z" fill="#FAFAFA"></path><path d="M306.82 63.8998C306.76 63.8998 306.79 63.4898 306.64 62.7798C306.49 62.0898 306.1 61.0798 305.15 60.2498C304.23 59.4298 302.67 58.8898 301.08 59.3398C299.51 59.7498 298.07 61.2598 297.93 63.1498C297.76 65.0398 298.93 66.7698 300.41 67.4298C301.9 68.1398 303.53 67.8698 304.57 67.2098C305.65 66.5598 306.2 65.6198 306.46 64.9698C306.72 64.3098 306.76 63.8998 306.82 63.8998C306.85 63.8998 306.9 64.3198 306.7 65.0498C306.5 65.7698 305.97 66.8198 304.82 67.5998C303.7 68.3798 301.87 68.7598 300.16 67.9798C298.46 67.2598 297.08 65.2798 297.29 63.0998C297.45 60.9198 299.14 59.1898 300.93 58.7698C302.75 58.2898 304.49 58.9598 305.46 59.9198C306.47 60.8798 306.82 62.0098 306.89 62.7498C306.97 63.4998 306.85 63.9098 306.82 63.8998Z" fill="#263238"></path><path d="M305.64 63.7998C305.48 65.6898 303.82 67.0998 301.93 66.9398C300.04 66.7798 298.63 65.1198 298.79 63.2298C298.95 61.3398 300.61 59.9298 302.5 60.0898C304.4 60.2498 305.8 61.9098 305.64 63.7998Z" fill="#455A64"></path><path d="M256.65 85.53C256.64 85.54 256.56 85.45 256.42 85.27C256.26 85.07 256.06 84.81 255.81 84.49C255.54 84.15 255.23 83.74 254.9 83.22C254.57 82.71 254.16 82.15 253.79 81.47C253.6 81.14 253.4 80.79 253.19 80.43C252.98 80.07 252.8 79.67 252.59 79.27C252.16 78.47 251.8 77.58 251.4 76.64C250.66 74.75 249.98 72.62 249.5 70.32C249.04 68.02 248.83 65.79 248.77 63.76C248.77 62.74 248.75 61.78 248.83 60.88C248.86 60.43 248.87 59.99 248.92 59.58C248.97 59.17 249.02 58.77 249.07 58.38C249.15 57.62 249.3 56.94 249.41 56.34C249.51 55.74 249.64 55.23 249.75 54.82C249.85 54.43 249.94 54.12 250.01 53.87C250.07 53.65 250.11 53.54 250.12 53.54C250.13 53.54 250.11 53.66 250.07 53.88C250.02 54.13 249.95 54.45 249.87 54.84C249.77 55.26 249.66 55.77 249.58 56.37C249.49 56.97 249.35 57.65 249.29 58.41C249.25 58.79 249.21 59.19 249.16 59.6C249.12 60.01 249.11 60.45 249.09 60.9C249.02 61.8 249.05 62.75 249.05 63.76C249.12 65.77 249.35 67.98 249.8 70.27C250.28 72.55 250.94 74.67 251.66 76.55C252.05 77.48 252.4 78.37 252.82 79.17C253.02 79.57 253.2 79.97 253.4 80.33C253.6 80.69 253.8 81.04 253.98 81.38C254.34 82.06 254.73 82.62 255.05 83.14C255.36 83.66 255.66 84.09 255.92 84.43C256.15 84.76 256.34 85.03 256.48 85.24C256.6 85.42 256.66 85.52 256.65 85.53Z" fill="#263238"></path><path d="M246.52 76.5801C246.44 76.6001 245.85 74.5101 245.2 71.9201C244.55 69.3201 244.09 67.2001 244.17 67.1801C244.25 67.1601 244.84 69.2501 245.49 71.8401C246.14 74.4401 246.6 76.5601 246.52 76.5801Z" fill="#263238"></path><path d="M225.811 170.25C225.971 164.97 226.901 159.72 226.791 154.43C226.681 149.15 225.391 143.62 221.781 139.77C218.171 135.92 211.791 134.35 207.431 137.33L206.461 141.81C207.791 162.21 207.181 182.91 208.501 203.32C208.671 206 210.801 208.46 211.981 210.88C213.151 213.3 215.561 215.32 218.241 215.2C221.751 215.05 224.121 211.53 225.271 208.21C229.451 196.18 225.431 182.98 225.811 170.25Z" fill="#263238"></path><path d="M213.6 142.62C212.86 141.3 212.09 139.96 210.98 138.93C209.87 137.9 208.34 137.21 206.85 137.46C206.15 137.58 205.43 137.97 205.18 138.63C204.93 139.3 205.42 140.21 206.13 140.16L206.28 140.29C207.84 141.72 209.42 143.12 211.03 144.48C211.44 144.82 211.86 145.17 212.36 145.34C212.87 145.51 213.48 145.44 213.84 145.05C214.44 144.42 214.04 143.39 213.6 142.62Z" fill="#C4161C"></path><path d="M216.491 147.86C211.341 141.33 204.341 137.49 196.031 137.2C191.341 137.04 189.381 137.98 185.991 138.83C182.601 139.68 179.511 141.44 177.451 144.26C174.991 147.61 172.911 151.38 172.391 155.5C171.851 159.74 172.101 163.89 172.841 167.33C173.741 171.5 176.481 177.91 178.921 181.41L186.101 182.42C192.081 182.73 198.141 183.04 203.991 181.78C209.841 180.52 215.561 177.49 218.781 172.44C223.241 165.43 221.641 154.4 216.491 147.86Z" fill="#263238"></path><path d="M206.861 147.62L192.521 141.62L188.741 141.99C180.251 141.87 174.231 151.12 174.051 157.99C173.851 165.63 173.901 174.96 175.021 180.61C177.251 191.97 186.901 193.09 186.901 193.09C186.901 193.09 186.401 203.31 186.261 207.11L208.871 205.49L210.621 151.56C210.571 149.47 208.941 147.76 206.861 147.62Z" fill="#FFBF9D"></path><path d="M192.041 178.27C191.971 177.67 191.651 177.14 191.231 176.77C190.401 176.03 189.161 175.94 188.251 176.55C187.331 177.16 186.791 178.43 186.941 179.62C187.441 180.33 188.201 180.81 189.061 180.9C189.191 180.91 189.331 180.92 189.461 180.92C190.111 180.92 190.781 180.71 191.291 180.23C191.801 179.76 192.131 179 192.041 178.27Z" fill="#FF9A6C"></path><path d="M178.451 168.28C178.451 169.06 179.111 169.69 179.921 169.71C180.731 169.72 181.381 169.11 181.381 168.33C181.381 167.55 180.721 166.92 179.911 166.9C179.111 166.89 178.451 167.51 178.451 168.28Z" fill="#263238"></path><path d="M176.571 161.85C176.761 162.03 177.841 161.17 179.421 161.12C180.991 161.04 182.181 161.81 182.351 161.61C182.431 161.52 182.231 161.18 181.721 160.83C181.211 160.48 180.351 160.16 179.371 160.2C178.391 160.24 177.571 160.63 177.111 161.02C176.631 161.42 176.471 161.77 176.571 161.85Z" fill="#263238"></path><path d="M186.472 174.4C186.472 174.31 185.492 174.18 183.892 174.03C183.492 174 183.102 173.94 183.022 173.66C182.912 173.37 183.072 172.93 183.252 172.46C183.592 171.47 183.952 170.43 184.332 169.35C185.822 164.92 186.892 161.29 186.712 161.23C186.532 161.17 185.172 164.71 183.682 169.14C183.322 170.23 182.982 171.27 182.652 172.27C182.512 172.73 182.272 173.26 182.502 173.86C182.622 174.16 182.922 174.36 183.182 174.42C183.442 174.49 183.672 174.49 183.872 174.49C185.472 174.51 186.472 174.49 186.472 174.4Z" fill="#263238"></path><path d="M186.872 193.07C186.872 193.07 194.582 193.28 202.032 188.43C202.032 188.43 198.242 196.5 186.762 195.85L186.872 193.07Z" fill="#FF9A6C"></path><path d="M191.151 175.32C190.891 175.31 190.951 177.03 189.531 178.3C188.111 179.57 186.281 179.45 186.271 179.69C186.251 179.8 186.691 180.01 187.461 180C188.221 180 189.311 179.71 190.181 178.94C191.051 178.16 191.401 177.15 191.431 176.45C191.471 175.72 191.271 175.3 191.151 175.32Z" fill="#263238"></path><path d="M177.202 156.34C177.482 156.72 178.682 156.41 180.092 156.48C181.512 156.5 182.692 156.87 182.992 156.52C183.122 156.35 182.952 155.98 182.452 155.61C181.952 155.24 181.112 154.92 180.132 154.88C179.162 154.85 178.302 155.13 177.782 155.46C177.272 155.8 177.082 156.16 177.202 156.34Z" fill="#263238"></path><path d="M196.331 167.56C196.361 168.33 195.721 169 194.911 169.04C194.101 169.08 193.431 168.49 193.401 167.72C193.371 166.95 194.011 166.28 194.811 166.24C195.621 166.19 196.301 166.79 196.331 167.56Z" fill="#263238"></path><path d="M197.902 161.63C197.722 161.82 196.612 161 195.032 161C193.452 160.98 192.292 161.79 192.122 161.6C192.042 161.51 192.222 161.17 192.732 160.8C193.232 160.43 194.072 160.08 195.062 160.08C196.042 160.09 196.872 160.45 197.352 160.82C197.832 161.2 197.992 161.54 197.902 161.63Z" fill="#263238"></path><path d="M197.052 156.56C196.742 156.92 195.522 156.55 194.062 156.53C192.602 156.47 191.362 156.77 191.072 156.39C190.942 156.21 191.142 155.85 191.682 155.51C192.212 155.17 193.112 154.9 194.112 154.92C195.122 154.95 195.992 155.27 196.502 155.64C197.022 156.02 197.192 156.39 197.052 156.56Z" fill="#263238"></path><path d="M208.291 170.72C208.261 169.87 209.171 167.83 210.011 167.66C212.241 167.23 216.301 167.26 216.541 172.96C216.881 180.75 208.981 179.48 208.961 179.26C208.941 179.09 208.391 173.66 208.291 170.72Z" fill="#FFBF9D"></path><path d="M210.991 176.32C211.021 176.29 211.131 176.41 211.361 176.5C211.591 176.59 211.981 176.65 212.381 176.48C213.191 176.14 213.831 174.81 213.801 173.4C213.791 172.69 213.611 172.02 213.341 171.47C213.081 170.91 212.691 170.53 212.271 170.47C211.851 170.39 211.571 170.65 211.481 170.88C211.381 171.1 211.441 171.26 211.401 171.27C211.381 171.29 211.231 171.15 211.281 170.82C211.311 170.66 211.391 170.48 211.571 170.32C211.751 170.16 212.021 170.07 212.311 170.09C212.911 170.11 213.481 170.64 213.781 171.24C214.121 171.84 214.331 172.59 214.341 173.39C214.361 174.96 213.621 176.47 212.511 176.84C211.971 177.01 211.501 176.86 211.261 176.69C211.011 176.51 210.961 176.34 210.991 176.32Z" fill="#FF9A6C"></path><path d="M210.331 167.69L208.321 169.71C199.931 161.38 183.611 140.61 184.521 141.85C184.521 141.85 190.411 139.55 196.741 140.75C203.071 141.95 215.061 145.35 214.731 152.83C214.411 160.3 210.331 167.69 210.331 167.69Z" fill="#263238"></path><path d="M221.671 166.18C221.681 166.18 221.641 166.02 221.561 165.73C221.471 165.44 221.311 165.01 221.051 164.49C220.531 163.46 219.521 162.05 217.861 160.77C216.231 159.46 213.961 158.37 211.371 157.5C208.781 156.6 205.861 155.89 203.001 154.6C200.121 153.36 197.561 151.77 195.391 150.15C193.221 148.51 191.441 146.82 190.051 145.31C188.661 143.79 187.661 142.46 186.981 141.53C186.671 141.09 186.421 140.73 186.221 140.44C186.041 140.19 185.951 140.07 185.931 140.07C185.921 140.08 185.991 140.22 186.151 140.48C186.311 140.74 186.531 141.13 186.851 141.61C187.491 142.57 188.471 143.94 189.841 145.49C191.211 147.04 192.991 148.77 195.171 150.44C197.351 152.09 199.931 153.7 202.841 154.96C205.741 156.27 208.681 156.97 211.251 157.84C213.831 158.69 216.071 159.73 217.691 160.98C219.331 162.21 220.351 163.55 220.911 164.55C221.461 165.56 221.631 166.19 221.671 166.18Z" fill="#455A64"></path><path d="M219.381 167.36C219.381 167.36 219.471 166.72 219.111 165.65C218.771 164.59 217.871 163.14 216.251 161.93C214.651 160.69 212.341 159.89 209.801 159.27C207.251 158.66 204.481 157.89 201.781 156.56C199.081 155.25 196.661 153.67 194.671 151.99C192.671 150.32 191.061 148.59 189.831 147.05C188.581 145.52 187.751 144.15 187.151 143.22C186.891 142.77 186.681 142.41 186.511 142.12C186.361 141.87 186.271 141.74 186.261 141.75C186.251 141.76 186.311 141.9 186.441 142.16C186.591 142.46 186.781 142.84 187.021 143.3C187.581 144.26 188.381 145.66 189.611 147.23C190.831 148.8 192.431 150.57 194.441 152.28C196.441 154 198.881 155.6 201.621 156.93C204.361 158.27 207.181 159.05 209.731 159.64C212.271 160.25 214.521 161 216.101 162.17C217.701 163.31 218.601 164.69 218.981 165.71C219.361 166.73 219.331 167.37 219.381 167.36Z" fill="#455A64"></path><path d="M209.831 180.86C209.821 180.81 210.491 180.73 211.651 180.45C212.801 180.15 214.441 179.48 216.051 178.09C217.681 176.73 219.151 174.58 220.211 171.97C221.261 169.36 221.921 166.28 222.061 163.02C222.121 161.39 222.031 159.81 221.771 158.29C221.491 156.78 221.071 155.36 220.561 154.05C219.491 151.44 218.051 149.3 216.641 147.7C213.801 144.48 211.411 143.16 211.501 143.05C211.511 143.04 211.661 143.12 211.931 143.28C212.201 143.45 212.611 143.68 213.091 144.05C214.081 144.75 215.451 145.85 216.911 147.46C218.381 149.06 219.881 151.21 220.991 153.87C221.531 155.21 221.971 156.66 222.261 158.2C222.531 159.75 222.631 161.38 222.571 163.04C222.431 166.35 221.741 169.49 220.641 172.15C219.541 174.81 217.991 176.99 216.281 178.36C214.581 179.75 212.881 180.39 211.691 180.63C211.101 180.78 210.621 180.78 210.311 180.82C210.001 180.87 209.831 180.88 209.831 180.86Z" fill="#455A64"></path><path d="M246.2 338.12H153.43C151.55 338.12 150.03 336.6 150.03 334.72C150.03 332.84 151.55 331.32 153.43 331.32H246.2C248.08 331.32 249.6 332.84 249.6 334.72C249.6 336.6 248.08 338.12 246.2 338.12Z" fill="#455A64"></path><path d="M250.03 432.47C248.81 432.59 247.73 431.68 247.61 430.43L239.47 346.02C239.3 344.26 237.87 342.93 236.15 342.93H165.07C163.35 342.93 161.92 344.26 161.75 346.02L153.61 430.43C153.49 431.68 152.4 432.59 151.19 432.47C149.97 432.35 149.08 431.23 149.2 429.98L157.34 345.57C157.73 341.49 161.07 338.38 165.07 338.38H236.15C240.14 338.38 243.48 341.49 243.88 345.57L252.02 429.98C252.14 431.24 251.25 432.35 250.03 432.47Z" fill="#E0E0E0"></path><path d="M250.031 432.47C250.011 432.43 250.551 432.49 251.241 431.91C251.571 431.62 251.901 431.12 251.971 430.47C252.001 429.82 251.851 429.04 251.791 428.16C251.441 424.65 250.931 419.48 250.261 412.84C248.961 399.52 247.071 380.26 244.741 356.47C244.451 353.5 244.151 350.45 243.851 347.34C243.761 346.57 243.721 345.76 243.601 345.01C243.461 344.25 243.221 343.51 242.881 342.81C242.171 341.43 241.051 340.22 239.641 339.48C238.941 339.11 238.171 338.85 237.381 338.71C236.601 338.56 235.771 338.61 234.941 338.6C233.281 338.6 231.601 338.6 229.901 338.6C226.511 338.6 223.051 338.6 219.541 338.61C205.481 338.62 190.461 338.63 174.651 338.63C172.671 338.63 170.691 338.63 168.691 338.63C167.691 338.63 166.691 338.63 165.681 338.63C164.671 338.61 163.711 338.69 162.771 339.01C160.911 339.62 159.311 341.01 158.411 342.78C157.441 344.54 157.551 346.66 157.291 348.71C156.501 356.95 155.691 365.36 154.861 373.92C153.211 391.04 151.501 408.77 149.751 426.93C149.651 428.05 149.511 429.23 149.451 430.3C149.471 431.32 150.361 432.24 151.381 432.22C152.401 432.25 153.301 431.36 153.351 430.33C153.461 429.21 153.571 428.08 153.681 426.96C154.111 422.48 154.541 418.02 154.971 413.6C155.821 404.76 156.671 396.04 157.491 387.48C158.321 378.92 159.131 370.51 159.931 362.27C160.331 358.15 160.721 354.08 161.111 350.05C161.211 349.04 161.301 348.04 161.401 347.04C161.461 346.54 161.471 346.05 161.581 345.51C161.701 344.99 161.931 344.49 162.271 344.07C162.921 343.22 163.981 342.7 165.051 342.7C166.041 342.7 167.041 342.7 168.021 342.7C183.831 342.71 198.851 342.72 212.911 342.72C219.941 342.73 226.731 342.73 233.261 342.74C234.081 342.74 234.891 342.74 235.691 342.74C236.491 342.69 237.411 342.85 238.091 343.35C238.791 343.83 239.301 344.56 239.521 345.36C239.711 346.19 239.701 346.95 239.801 347.73C240.101 350.84 240.391 353.89 240.671 356.87C242.931 380.67 244.761 399.93 246.031 413.25C246.651 419.9 247.131 425.07 247.461 428.58C247.561 429.45 247.561 430.24 247.721 430.88C247.921 431.51 248.331 431.93 248.711 432.16C249.531 432.6 250.051 432.43 250.031 432.47C250.051 432.45 249.531 432.64 248.711 432.21C248.321 431.99 247.881 431.56 247.671 430.91C247.501 430.24 247.501 429.47 247.381 428.6C247.031 425.09 246.521 419.93 245.851 413.28C244.551 399.96 242.661 380.71 240.331 356.92C240.041 353.94 239.741 350.9 239.441 347.78C239.341 347.02 239.331 346.18 239.161 345.47C238.961 344.75 238.511 344.1 237.881 343.68C237.251 343.24 236.511 343.1 235.701 343.14C234.891 343.14 234.081 343.14 233.271 343.14C226.741 343.14 219.951 343.15 212.921 343.15C198.861 343.16 183.841 343.17 168.031 343.17C167.041 343.17 166.051 343.17 165.061 343.17C164.141 343.17 163.231 343.62 162.661 344.35C162.371 344.71 162.171 345.15 162.071 345.6C161.971 346.04 161.951 346.57 161.901 347.06C161.801 348.06 161.711 349.07 161.611 350.07C161.221 354.1 160.831 358.18 160.431 362.29C159.641 370.53 158.831 378.94 158.001 387.5C157.181 396.06 156.341 404.78 155.481 413.62C155.051 418.04 154.621 422.5 154.191 426.98C154.081 428.1 153.971 429.22 153.871 430.35C153.821 431.6 152.681 432.75 151.381 432.71C150.081 432.73 148.951 431.57 148.931 430.29C148.991 429.08 149.141 428 149.231 426.85C150.981 408.69 152.701 390.96 154.351 373.84C155.181 365.28 155.991 356.87 156.791 348.63C156.891 347.6 156.991 346.57 157.091 345.55C157.191 344.5 157.481 343.46 157.971 342.52C158.931 340.64 160.631 339.16 162.611 338.51C163.591 338.17 164.671 338.09 165.671 338.11C166.681 338.11 167.681 338.11 168.681 338.11C170.681 338.11 172.671 338.11 174.641 338.11C190.451 338.12 205.471 338.13 219.531 338.13C223.041 338.13 226.501 338.13 229.891 338.14C231.591 338.14 233.271 338.14 234.931 338.14C235.751 338.15 236.601 338.1 237.441 338.26C238.271 338.4 239.081 338.68 239.821 339.07C241.301 339.86 242.481 341.12 243.221 342.58C243.581 343.32 243.831 344.1 243.971 344.89C244.101 345.7 244.141 346.47 244.221 347.25C244.521 350.36 244.811 353.41 245.091 356.39C247.351 380.19 249.181 399.45 250.451 412.77C251.071 419.42 251.551 424.59 251.881 428.1C251.941 428.98 252.081 429.74 252.041 430.42C251.961 431.1 251.611 431.6 251.261 431.9C250.561 432.54 250.011 432.45 250.031 432.47Z" fill="#263238"></path><path d="M241.321 279.01H174.781C169.341 279.01 164.931 274.6 164.931 269.16V221.15C164.931 215.71 169.341 211.3 174.781 211.3H241.321C246.761 211.3 251.171 215.71 251.171 221.15V269.16C251.171 274.6 246.761 279.01 241.321 279.01Z" fill="#455A64"></path><path d="M164.171 209.79C164.171 209.79 162.961 207.23 166.971 204.74C170.981 202.25 186.601 199.11 186.601 199.11C186.601 199.11 187.231 204.84 198.521 203.98C207.341 203.31 208.761 197.23 208.761 197.23L231.101 200.25C231.101 200.25 233.401 225.13 230.231 247.59C229.411 253.37 226.991 280.33 226.991 280.33L232.191 285.69L162.471 288.21L168.121 280.57L167.301 237.17L164.171 209.79Z" fill="#C4161C"></path><path d="M226.991 199.77C226.991 199.77 234.111 199.66 239.021 204C243.931 208.35 251.681 225.62 251.681 225.62L230.141 237.97L226.991 199.77Z" fill="#C4161C"></path><path d="M149.461 224.66L171.551 240.15L168.111 204.54C168.111 204.54 162.521 203.1 149.461 224.66Z" fill="#C4161C"></path><path d="M232.591 214.85C232.631 214.85 232.631 215.21 232.611 215.85C232.571 216.61 232.531 217.51 232.481 218.56C232.341 220.98 232.151 224.06 231.951 227.47C231.751 230.95 231.621 234.1 231.551 236.39C231.471 238.67 231.441 240.09 231.361 240.09C231.321 240.09 231.291 239.74 231.251 239.1C231.211 238.46 231.191 237.53 231.181 236.39C231.161 234.1 231.231 230.94 231.431 227.45C231.631 223.96 231.891 220.81 232.111 218.54C232.221 217.4 232.321 216.48 232.401 215.85C232.491 215.19 232.551 214.84 232.591 214.85Z" fill="#263238"></path><path d="M164.521 218.08C164.661 218.06 165.401 222.9 166.161 228.89C166.931 234.88 167.431 239.74 167.291 239.76C167.151 239.78 166.411 234.94 165.651 228.95C164.881 222.97 164.381 218.1 164.521 218.08Z" fill="#263238"></path><path d="M196.11 319.39C196.11 319.39 192.06 332.23 192.9 345.65C193.74 359.08 194.88 421.3 194.45 422.34C194.02 423.37 216.02 426.47 216.02 426.47C216.02 426.47 221.59 395.23 222.71 387.22C223.82 379.22 226.33 377.41 226.05 355.72C225.77 334.03 231.91 338.57 236.36 331.39C240.81 324.22 242.48 317.5 239.97 305.11C237.46 292.72 226.42 281.4 226.42 281.4L202.92 290.91L194.24 315.33L196.11 319.39Z" fill="#263238"></path><path d="M239.45 343.83L251.42 365.29L266.17 379.73C267.23 380.77 267.12 382.43 265.93 383.34C265.26 383.85 264.38 384.03 263.54 383.82C258.22 382.49 238.92 377.15 238.17 376.06C236.99 374.33 223.65 354.01 223.65 354.01L239.45 343.83Z" fill="#263238"></path><path d="M265.931 383.34L237.061 374.44L237.591 375.34C238.211 376.21 238.781 376.72 239.681 377.04C242.071 377.89 248.711 380.09 263.481 383.86C264.331 384.08 265.251 383.88 265.931 383.34Z" fill="#455A64"></path><path d="M255.241 376.72C255.401 376.71 255.261 375.34 256.271 374.06C257.241 372.75 258.681 372.41 258.631 372.26C258.621 372.2 258.231 372.18 257.661 372.38C257.091 372.58 256.351 373.04 255.811 373.75C255.271 374.47 255.041 375.26 255.041 375.83C255.021 376.4 255.171 376.74 255.241 376.72Z" fill="white"></path><path d="M258.541 378.74C258.701 378.78 259.031 377.72 260.031 376.8C261.011 375.87 262.151 375.55 262.111 375.4C262.111 375.26 260.751 375.37 259.631 376.42C258.491 377.47 258.391 378.74 258.541 378.74Z" fill="white"></path><path d="M250.061 374.62C250.231 374.67 250.721 373.03 252.141 371.49C253.531 369.92 255.181 369.18 255.101 369.04C255.071 368.91 253.201 369.47 251.701 371.15C250.191 372.81 249.921 374.62 250.061 374.62Z" fill="white"></path><path d="M245.831 368.38C245.971 368.48 246.941 367.35 248.551 366.46C250.151 365.55 251.681 365.28 251.651 365.12C251.651 364.98 249.971 365.03 248.251 366C246.531 366.96 245.701 368.32 245.831 368.38Z" fill="white"></path><path d="M166.9 285.98C166.9 285.98 191.12 277.8 199.04 277.8C206.96 277.8 211.51 278.77 216.56 288.92C222.51 300.86 249.71 357.86 249.66 357.35L230.29 367.96C230.29 367.96 205.64 334.1 200.36 325.94C195.08 317.78 195.08 317.78 195.08 317.78C195.08 317.78 198.01 327.09 192.28 331.17C186.56 335.25 165.24 333.14 159.08 327.02C152.92 320.9 151.94 314.92 154.14 304.72C156.34 294.53 166.9 285.98 166.9 285.98Z" fill="#263238"></path><path d="M192.18 296.19C192.26 296.24 190.98 297 190.26 298.99C189.91 299.97 189.74 301.2 189.88 302.56C190 303.92 190.41 305.4 190.89 306.93C191.84 310 192.99 312.69 193.9 314.61C194.33 315.5 194.7 316.25 195 316.87C195.27 317.4 195.41 317.7 195.38 317.72C195.35 317.73 195.16 317.46 194.84 316.95C194.53 316.44 194.09 315.69 193.6 314.74C192.61 312.84 191.41 310.14 190.45 307.05C189.97 305.51 189.57 304 189.46 302.59C189.34 301.18 189.55 299.89 189.96 298.89C190.36 297.88 190.94 297.17 191.39 296.75C191.85 296.32 192.17 296.17 192.18 296.19Z" fill="#455A64"></path><path d="M217.12 401.32L215.8 428.75L221.5 450.72C221.91 452.3 220.79 453.88 219.06 454.15C218.09 454.3 217.11 454.02 216.41 453.37C211.99 449.26 196.23 433.87 196.16 432.41C196.05 430.08 195.32 403.06 195.32 403.06L217.12 401.32Z" fill="#263238"></path><path d="M219.07 454.14L196.06 430.21L196.03 431.37C196.11 432.56 196.36 433.36 197.05 434.14C198.88 436.23 204.08 441.88 216.33 453.36C217.04 454.03 218.07 454.33 219.07 454.14Z" fill="#455A64"></path><path d="M212.581 442.02C212.751 442.1 213.451 440.68 215.231 439.94C216.981 439.15 218.611 439.57 218.651 439.4C218.681 439.33 218.311 439.11 217.621 439.01C216.941 438.9 215.931 438.97 214.961 439.39C213.991 439.81 213.281 440.48 212.931 441.03C212.561 441.59 212.511 441.99 212.581 442.02Z" fill="white"></path><path d="M214.6 445.73C214.74 445.85 215.71 444.98 217.25 444.6C218.78 444.19 220.1 444.48 220.15 444.31C220.24 444.17 218.83 443.56 217.08 444.02C215.33 444.46 214.45 445.66 214.6 445.73Z" fill="white"></path><path d="M208.761 437.23C208.901 437.36 210.381 436.01 212.721 435.23C215.051 434.42 217.121 434.55 217.131 434.37C217.181 434.22 214.991 433.8 212.491 434.66C209.991 435.51 208.621 437.15 208.761 437.23Z" fill="white"></path><path d="M208.411 428.86C208.491 429.03 210.141 428.43 212.271 428.4C214.401 428.34 216.081 428.88 216.141 428.71C216.221 428.58 214.541 427.74 212.251 427.8C209.971 427.83 208.321 428.73 208.411 428.86Z" fill="white"></path><path d="M230.29 367.97C230.28 367.98 230.1 367.76 229.79 367.34C229.45 366.88 228.99 366.26 228.42 365.48C227.22 363.81 225.54 361.46 223.48 358.58C219.32 352.69 213.63 344.62 207.34 335.71C202.74 329.13 198.47 323.02 194.9 317.91L195.29 317.74C196.3 323.08 195.2 327.86 193.11 330.29C192.11 331.53 190.95 332.13 190.14 332.35C189.74 332.5 189.41 332.5 189.2 332.54C188.99 332.57 188.88 332.57 188.87 332.56C188.86 332.51 189.32 332.49 190.09 332.22C190.86 331.96 191.96 331.35 192.9 330.12C194.86 327.73 195.89 323.05 194.85 317.81L194.65 316.8L195.24 317.64C198.83 322.74 203.13 328.84 207.75 335.4C213.99 344.35 219.64 352.44 223.76 358.36C225.77 361.28 227.4 363.66 228.57 365.35C229.11 366.15 229.53 366.79 229.86 367.27C230.16 367.72 230.3 367.96 230.29 367.97Z" fill="#455A64"></path><path d="M246.36 350.03C246.23 350.09 239.02 335.59 230.27 317.63C221.51 299.67 214.51 285.06 214.64 285C214.77 284.94 221.97 299.44 230.74 317.4C239.49 335.36 246.49 349.97 246.36 350.03Z" fill="#455A64"></path><path d="M150.701 225.47C150.701 225.47 132.631 251.15 132.641 259.75C132.651 264.6 135.641 269.6 140.471 270.6C145.621 271.67 156.981 272.89 156.981 272.89L158.991 258.87L152.641 256.39L167.291 237.17L150.701 225.47Z" fill="#FFBF9D"></path><path d="M168.621 262.77C168.621 262.81 175.931 272.84 175.931 272.84L178.131 273.64L177.761 271.48L171.121 260.99L168.621 262.77Z" fill="#263238"></path><path d="M176.061 270.52C176.061 270.52 176.061 268.95 176.511 268.5C176.961 268.05 178.411 266.15 178.081 265.14C177.741 264.13 175.391 263.35 174.721 262.23C174.051 261.11 174.721 259.88 172.591 258.76C170.461 257.64 162.731 255.93 161.051 256.5C159.371 257.08 158.471 260.25 158.471 260.25C158.471 260.25 155.681 260.55 156.011 264.81L155.981 265.93C155.981 265.93 155.281 269.29 155.981 270.52C155.981 270.52 155.111 272.98 157.131 274.33C159.151 275.67 166.141 274.55 166.901 274.33C166.901 274.33 168.821 274.78 169.811 273.88C170.801 272.98 170.351 271.19 170.351 271.19C170.351 271.19 172.031 271.19 172.591 270.29C173.151 269.39 173.151 269.39 173.151 269.39C173.151 269.39 174.381 271.29 175.281 271.29C176.171 271.31 176.061 270.52 176.061 270.52Z" fill="#FFBF9D"></path><path d="M154.781 242.41L167.741 259.68L172.171 262.77L171.131 260.58L156.921 240.84C156.471 240.21 155.571 240.1 154.981 240.6C154.441 241.05 154.351 241.85 154.781 242.41Z" fill="#263238"></path><path d="M165.911 258.45C165.931 258.42 166.221 258.55 166.741 258.81C167.261 259.08 167.991 259.49 168.861 260.07C169.731 260.65 170.741 261.38 171.721 262.38C172.201 262.89 172.701 263.44 173.041 264.18C173.201 264.54 173.321 264.97 173.241 265.43C173.171 265.89 172.861 266.31 172.451 266.53C171.631 267 170.691 266.78 170.001 266.5C169.291 266.22 168.641 265.91 168.021 265.59C166.791 264.95 165.751 264.26 164.921 263.63C164.091 263 163.461 262.43 163.051 262.02C162.641 261.61 162.441 261.36 162.461 261.33C162.521 261.27 163.451 262.16 165.141 263.33C165.991 263.91 167.031 264.56 168.251 265.16C168.861 265.46 169.511 265.75 170.191 266.02C170.851 266.28 171.601 266.42 172.201 266.07C172.811 265.75 172.871 264.99 172.571 264.37C172.301 263.74 171.831 263.2 171.371 262.7C170.451 261.72 169.471 260.97 168.641 260.36C166.981 259.17 165.871 258.52 165.911 258.45Z" fill="#FF9A6C"></path><path d="M170.171 271.41C170.151 271.54 168.041 271.26 165.651 270.24C163.251 269.23 161.581 267.91 161.661 267.81C161.751 267.68 163.511 268.78 165.851 269.76C168.191 270.76 170.201 271.26 170.171 271.41Z" fill="#FF9A6C"></path><path d="M165.6 274.39C165.54 274.52 164.32 274.14 162.87 273.53C161.42 272.92 160.29 272.33 160.34 272.2C160.39 272.07 161.62 272.44 163.07 273.05C164.52 273.65 165.65 274.25 165.6 274.39Z" fill="#FF9A6C"></path><path d="M174.031 264.48C174.131 264.59 173.231 265.32 172.931 266.6C172.621 267.87 173.091 268.93 172.951 268.98C172.891 269.01 172.691 268.79 172.521 268.34C172.351 267.89 172.251 267.21 172.421 266.48C172.591 265.75 173.001 265.18 173.351 264.86C173.711 264.53 173.991 264.42 174.031 264.48Z" fill="#FF9A6C"></path><path d="M175.55 264.47C175.52 264.61 175.13 264.67 174.69 264.76C174.24 264.85 173.86 264.96 173.78 264.83C173.7 264.72 174.03 264.36 174.58 264.25C175.14 264.14 175.58 264.34 175.55 264.47Z" fill="#FF9A6C"></path><path d="M172.941 261.25C173.011 261.38 172.681 261.69 172.521 262.19C172.341 262.68 172.401 263.13 172.271 263.19C172.151 263.27 171.781 262.72 172.031 262.02C172.261 261.32 172.901 261.11 172.941 261.25Z" fill="#FF9A6C"></path><path d="M156.061 272.9C156.041 272.92 155.801 272.73 155.671 272.21C155.561 271.73 155.611 270.82 156.441 270.21L156.411 270.51C155.831 269.98 155.361 269.11 155.281 268.1C155.191 267.1 155.491 265.92 156.341 265.07L156.271 265.33C156.251 265.26 156.231 265.19 156.211 265.12C155.871 263.94 155.631 262.63 156.191 261.55C156.731 260.52 157.911 259.98 158.771 260.34L158.531 260.51C158.551 259.71 158.811 259.1 159.031 258.73C159.251 258.36 159.441 258.2 159.461 258.22C159.551 258.26 158.871 259.03 158.901 260.51L158.911 260.77L158.661 260.68C158.001 260.43 157.061 260.9 156.631 261.77C156.201 262.64 156.391 263.82 156.721 264.98C156.741 265.05 156.761 265.12 156.781 265.19L156.821 265.34L156.711 265.45C155.991 266.16 155.711 267.19 155.771 268.07C155.821 268.97 156.201 269.74 156.681 270.24L156.851 270.41L156.651 270.54C155.981 270.97 155.841 271.74 155.891 272.18C155.931 272.64 156.101 272.87 156.061 272.9Z" fill="#FF9A6C"></path><path d="M143.441 257.13C143.411 257.07 143.841 256.75 144.621 256.36C145.391 255.98 146.561 255.52 147.931 255.49C149.291 255.47 150.461 255.76 151.301 255.95C152.141 256.16 152.651 256.32 152.631 256.39C152.621 256.46 152.081 256.43 151.231 256.31C150.381 256.21 149.211 255.99 147.941 256.01C146.671 256.04 145.561 256.41 144.761 256.7C143.971 256.99 143.471 257.2 143.441 257.13Z" fill="#FF9A6C"></path><path d="M249.89 226.65C250.3 228.68 261.23 260.63 261.49 263.19C261.75 265.75 260.05 272.93 254.7 273.5C249.73 274.03 210.53 274.74 210.53 274.74L210.69 266.38L242.1 258.79L232.58 236.57L249.89 226.65Z" fill="#FFBF9D"></path><path d="M249.871 263.43C249.741 263.52 248.731 261.42 246.331 260.12C243.961 258.76 241.641 259.01 241.651 258.85C241.641 258.79 242.201 258.64 243.131 258.67C244.051 258.7 245.341 258.98 246.591 259.67C247.831 260.37 248.751 261.32 249.251 262.09C249.761 262.85 249.921 263.4 249.871 263.43Z" fill="#FF9A6C"></path><path d="M188.34 273.91C187.27 273.79 186.72 272.56 187.34 271.68C188.73 269.7 191.1 266.39 191.59 266.06C192.3 265.59 198.12 263.78 198.67 263.62C199.22 263.46 208.44 265.5 211.35 265.89L217.13 265.1L217.64 272.52C217.64 272.52 210.95 273.94 209.45 273.46C207.95 272.99 207.09 271.96 207.09 271.96L202.92 271.17L197.96 272.35C197.96 272.35 194.02 273.92 193.32 274C192.61 274.08 192.06 273.61 192.06 273.61C192.06 273.61 190.11 274.11 188.34 273.91Z" fill="#FFBF9D"></path><path d="M277.591 276.66H272.821H120.661H118.831H114.061V429.19C114.061 431.01 115.541 432.49 117.361 432.49C119.181 432.49 120.661 431.01 120.661 429.19V299.75H272.821V429.18C272.821 431 274.301 432.48 276.121 432.48C277.941 432.48 279.421 431 279.421 429.18V276.66H277.591Z" fill="#E0E0E0"></path><path d="M277.59 276.66C277.59 276.66 277.8 276.65 279.42 276.65H279.43V276.66C279.44 280.93 279.49 312.65 279.57 364.03C279.58 376.88 279.59 390.96 279.6 406.14C279.58 413.74 279.66 421.56 279.56 429.74C279.4 430.81 278.7 431.77 277.74 432.28C276.78 432.79 275.58 432.82 274.59 432.33C273.6 431.86 272.86 430.89 272.67 429.8C272.58 429.24 272.62 428.73 272.61 428.21V426.64C272.61 422.45 272.61 418.2 272.6 413.89C272.59 379.39 272.58 341.01 272.56 299.75L272.8 299.99C225.84 300 174.37 300 120.64 300.01L120.9 299.75C120.9 301.25 120.9 302.87 120.9 304.49C120.9 331.97 120.9 358.88 120.9 384.99C120.9 398.04 120.9 410.89 120.89 423.52C120.89 425.1 120.89 426.67 120.89 428.24C120.88 428.64 120.9 429.01 120.88 429.43C120.85 429.85 120.74 430.27 120.57 430.65C120.22 431.42 119.59 432.05 118.83 432.4C118.07 432.75 117.18 432.83 116.37 432.59C115.56 432.36 114.85 431.83 114.39 431.14C113.91 430.46 113.76 429.55 113.8 428.78V426.45C113.8 420.26 113.8 414.13 113.8 408.06C113.82 359.52 113.83 315.11 113.84 276.65V276.45H114.04C164.27 276.49 205.15 276.52 233.48 276.54C247.64 276.56 258.66 276.58 266.15 276.59C269.89 276.6 272.74 276.61 274.67 276.62C276.6 276.64 277.59 276.66 277.59 276.66C277.59 276.66 276.6 276.68 274.68 276.69C272.75 276.7 269.9 276.71 266.16 276.72C258.67 276.73 247.65 276.75 233.49 276.77C205.16 276.79 164.28 276.82 114.05 276.86L114.25 276.66C114.26 315.12 114.28 359.53 114.29 408.07C114.29 414.14 114.29 420.27 114.29 426.46V428.79C114.26 429.56 114.38 430.26 114.8 430.88C115.58 432.11 117.3 432.61 118.62 431.97C119.28 431.67 119.82 431.13 120.12 430.47C120.45 429.81 120.4 429.07 120.4 428.26C120.4 426.69 120.4 425.12 120.4 423.54C120.4 410.92 120.4 398.07 120.39 385.01C120.39 358.9 120.39 332 120.39 304.51C120.39 302.88 120.39 301.26 120.39 299.77V299.51H120.65C174.38 299.52 225.85 299.52 272.81 299.53H273.05V299.77C273.04 341.03 273.02 379.41 273.01 413.91C273.01 418.22 273.01 422.47 273 426.66V428.23C273.01 428.75 272.97 429.28 273.05 429.75C273.22 430.71 273.87 431.57 274.75 431.99C275.62 432.42 276.69 432.39 277.54 431.95C278.39 431.5 279.02 430.65 279.16 429.7C279.25 421.65 279.19 413.73 279.22 406.16C279.23 390.98 279.24 376.9 279.25 364.05C279.33 312.67 279.38 280.94 279.39 276.68L279.4 276.69C277.79 276.66 277.59 276.66 277.59 276.66Z" fill="#263238"></path><path d="M283.371 278.95H107.391C105.831 278.95 104.561 277.68 104.561 276.12C104.561 274.56 105.831 273.29 107.391 273.29H283.381C284.941 273.29 286.211 274.56 286.211 276.12C286.201 277.68 284.931 278.95 283.371 278.95Z" fill="#455A64"></path><path d="M226.2 272.47H159.36V274.11H226.2V272.47Z" fill="white"></path></svg>