<svg width="407" height="250" viewBox="0 0 407 250" fill="none" xmlns="http://www.w3.org/2000/svg">
<rect width="407" height="250" fill="url(#paint0_linear_519_23)"/>
<path d="M90.6166 61.8373V69.2343H86.7829C85.2583 69.9964 83.7787 70.9378 82.3438 72.0586C80.9538 73.1345 79.6983 74.3897 78.5773 75.8243C77.5012 77.214 76.6268 78.7607 75.9543 80.4642C75.3265 82.1678 75.0126 84.0058 75.0126 85.9783C75.0126 88.6681 75.4162 90.7751 76.2233 92.2994C77.0304 93.8236 78.0393 94.8995 79.2499 95.5271C80.4606 96.1099 81.6712 96.4013 82.8819 96.4013C83.689 96.4013 84.4737 96.3341 85.2359 96.1996C85.9982 96.0202 86.8726 95.684 87.859 95.1909L91.2219 101.848C89.7422 102.7 88.285 103.283 86.8501 103.597C85.4153 103.866 83.9132 104 82.3438 104C79.0257 104 76.1336 103.328 73.6675 101.983C71.2013 100.593 69.2957 98.5756 67.9505 95.9306C66.6502 93.2408 66 89.9906 66 86.18C66 83.4454 66.426 80.8453 67.2779 78.3796C68.1299 75.8691 69.2957 73.5604 70.7754 71.4534C72.2999 69.3463 74.071 67.4859 76.0888 65.872C78.1065 64.2133 80.2812 62.8684 82.6128 61.8373H90.6166Z" fill="white"/>
<path d="M134.026 61.8373V69.2343H127.569V103.664H118.691V94.9219L119.835 98.4859C118.176 96.1996 116.584 94.2495 115.059 92.6356C113.535 90.9769 112.01 89.7216 110.486 88.8698C108.961 87.9732 107.347 87.5249 105.643 87.5249C104.612 87.5249 103.715 87.7939 102.953 88.3319C102.19 88.8699 101.809 89.6768 101.809 90.7527C101.809 91.9183 102.235 92.8373 103.087 93.5098C103.984 94.1374 105.195 94.7202 106.719 95.2581L104.163 102.991C101.473 102.229 99.276 101.198 97.5721 99.898C95.913 98.5531 94.68 97.0738 93.8729 95.4599C93.0658 93.846 92.6622 92.1873 92.6622 90.4837C92.6622 88.1077 93.2227 86.1576 94.3437 84.6334C95.4647 83.1092 96.8995 81.9884 98.6482 81.2712C100.442 80.5539 102.28 80.1952 104.163 80.1952C106.361 80.1952 108.378 80.4866 110.217 81.0694C112.1 81.6522 113.849 82.5712 115.463 83.8265C117.077 85.0369 118.646 86.6283 120.171 88.6009L118.826 89.6095C118.781 88.5336 118.736 87.4577 118.691 86.3818C118.691 85.261 118.691 84.1627 118.691 83.0868V69.2343H89.2993V61.8373H134.026ZM111.562 82.0781C111.562 82.3022 111.539 82.6385 111.495 83.0868C111.495 83.4902 111.45 83.8937 111.36 84.2972L102.684 82.0781C102.594 79.9711 102.213 78.3124 101.54 77.102C100.868 75.8915 99.7468 74.9725 98.1774 74.3449C96.608 73.7173 94.3661 73.269 91.4516 73L93.2003 66.2082L96.9668 67.2842C99.6571 67.598 101.921 68.1359 103.76 68.8981C105.643 69.6602 107.145 70.6464 108.266 71.8568C109.432 73.0224 110.262 74.457 110.755 76.1605C111.293 77.8641 111.562 79.8366 111.562 82.0781Z" fill="white"/>
<path d="M154.441 61.8373V69.2343H147.984V103.664H139.106V69.2343H132.649V61.8373H139.174C138.456 61.0304 137.671 60.1114 136.82 59.0803C136.012 58.0492 135.295 57.1077 134.667 56.256C136.909 52.6247 139.106 49.778 141.259 47.7158C143.456 45.6537 145.765 44.1967 148.186 43.3449C150.607 42.4483 153.275 42 156.19 42C158.342 42 160.382 42.1793 162.31 42.538C164.283 42.8966 166.324 43.5242 168.431 44.4208C170.583 45.2726 172.96 46.4382 175.56 47.9176C178.161 49.3521 181.188 51.1453 184.64 53.2972L180.067 59.282C176.435 56.9508 173.341 55.068 170.785 53.6334C168.229 52.154 165.898 51.0781 163.79 50.4056C161.683 49.7332 159.463 49.397 157.132 49.397C155.024 49.397 153.186 49.8004 151.616 50.6074C150.047 51.4143 148.679 52.423 147.514 53.6334C146.393 54.8438 145.406 56.0991 144.554 57.3991C144.958 58.1164 145.429 58.8785 145.967 59.6855C146.505 60.4924 147.065 61.2097 147.648 61.8373H154.441Z" fill="white"/>
<path d="M204.26 61.8373V69.2343H180.854V77.9089C180.854 78.5813 180.966 79.1641 181.191 79.6573C181.415 80.1056 181.886 80.3297 182.603 80.3297C183.186 80.3297 183.814 80.128 184.486 79.7245C185.159 79.2762 185.832 78.671 186.504 77.9089C187.222 77.102 187.939 76.2054 188.656 75.2191L196.526 73.7397C198.05 75.9364 199.194 78.1555 199.956 80.397C200.718 82.5936 201.099 84.9696 201.099 87.5249C201.099 90.3492 200.404 92.8821 199.014 95.1236C197.669 97.3203 195.629 99.0687 192.894 100.369C190.203 101.669 186.863 102.319 182.872 102.319C179.913 102.319 177.065 101.893 174.33 101.041C171.595 100.189 169.017 98.7549 166.596 96.7375C164.219 94.6753 162.022 91.8735 160.004 88.3319C158.031 84.7455 156.305 80.2625 154.825 74.8829L163.233 72.5293C164.712 77.8641 166.394 82.1678 168.277 85.4403C170.16 88.6681 172.245 91.0217 174.532 92.5011C176.864 93.9356 179.397 94.6529 182.132 94.6529C185.361 94.6529 187.849 93.9356 189.598 92.5011C191.392 91.0217 192.288 88.9819 192.288 86.3818C192.288 84.6334 191.974 83.1988 191.347 82.0781C190.719 80.9573 190.002 79.9038 189.194 78.9176L196.055 78.3796C194.441 80.5315 192.804 82.3022 191.145 83.692C189.486 85.0817 187.804 86.1128 186.101 86.7852C184.442 87.4577 182.715 87.7939 180.922 87.7939C179.487 87.7939 178.209 87.5922 177.088 87.1887C175.967 86.7404 175.025 86.0904 174.263 85.2386C173.501 84.3868 172.918 83.2885 172.514 81.9436C172.156 80.5987 171.976 78.8727 171.976 76.7657V69.2343H153.077V61.8373H204.26Z" fill="white"/>
<path d="M231.111 61.8373V69.2343H227.277C225.752 69.9964 224.273 70.9378 222.838 72.0586C221.448 73.1345 220.192 74.3897 219.071 75.8243C217.995 77.214 217.121 78.7607 216.448 80.4642C215.821 82.1678 215.507 84.0058 215.507 85.9783C215.507 88.6681 215.91 90.7751 216.717 92.2994C217.524 93.8236 218.533 94.8995 219.744 95.5271C220.955 96.1099 222.165 96.4013 223.376 96.4013C224.183 96.4013 224.968 96.3341 225.73 96.1996C226.492 96.0202 227.367 95.684 228.353 95.1909L231.716 101.848C230.236 102.7 228.779 103.283 227.344 103.597C225.909 103.866 224.407 104 222.838 104C219.52 104 216.628 103.328 214.162 101.983C211.695 100.593 209.79 98.5756 208.445 95.9306C207.144 93.2408 206.494 89.9906 206.494 86.18C206.494 83.0868 207.055 80.2176 208.176 77.5727C209.296 74.9277 210.866 72.6189 212.884 70.6464C214.946 68.6291 217.368 67.1048 220.148 66.0738L215.843 68.9653C215.126 69.055 214.296 69.1222 213.354 69.167C212.458 69.2119 211.292 69.2343 209.857 69.2343H202.929V61.8373H231.111Z" fill="white"/>
<path d="M288.779 61.8373V69.2343H266.853V73.269L266.987 76.026V103.664H258.109C256.45 101.243 254.432 99.1135 252.056 97.2755C249.724 95.4375 247.124 93.9132 244.254 92.7028C241.384 91.4476 238.268 90.551 234.905 90.013L231.542 82.0781C235.667 79.7918 240.174 77.5951 245.061 75.4881C249.993 73.3362 254.836 71.6327 259.589 70.3774L258.311 72.3275V69.2343H229.793V61.8373H288.779ZM258.109 76.833L259.522 78.3124C257.549 78.8952 255.643 79.5228 253.805 80.1952C252.011 80.8677 250.217 81.6074 248.424 82.4143C246.63 83.1764 244.77 84.0282 242.841 84.9696C244.68 85.3283 246.586 85.9559 248.558 86.8525C250.576 87.7043 252.527 88.825 254.41 90.2148C256.338 91.6045 258.064 93.2184 259.589 95.0564L258.378 95.7961C258.333 94.9892 258.266 94.0926 258.176 93.1063C258.132 92.12 258.109 91.0665 258.109 89.9458V76.833ZM285.954 86.3145C285.954 87.7939 285.64 89.2061 285.013 90.551C284.43 91.8959 283.398 92.9942 281.919 93.846C280.439 94.6978 278.376 95.1236 275.731 95.1236C274.789 95.1236 273.915 95.1012 273.108 95.0564C272.346 94.9667 271.628 94.8547 270.956 94.7202L271.225 87.3232C271.449 87.368 271.718 87.4129 272.032 87.4577C272.39 87.4577 272.839 87.4577 273.377 87.4577C274.991 87.4577 276.045 87.1887 276.538 86.6508C277.031 86.068 277.278 85.3731 277.278 84.5662C277.278 83.0419 276.314 81.697 274.386 80.5315C272.458 79.3659 269.633 78.4693 265.911 77.8416V70.5119C269.588 71.0051 272.928 71.9465 275.933 73.3362C278.982 74.6811 281.403 76.4519 283.197 78.6486C285.035 80.8004 285.954 83.3557 285.954 86.3145Z" fill="white"/>
<path d="M341 61.8373V69.2343H334.543V103.664H325.665V82.4816L327.481 86.3145C326.764 85.0145 325.912 83.8937 324.925 82.9523C323.939 82.0108 322.818 81.5401 321.562 81.5401C321.114 81.5401 320.598 81.6522 320.015 81.8764C319.477 82.1005 319.006 82.5264 318.603 83.154C318.244 83.7816 318.065 84.7007 318.065 85.9111C318.065 86.3145 318.087 86.6956 318.132 87.0542C318.177 87.368 318.222 87.7043 318.267 88.0629L310.666 88.5336C310.442 87.0542 309.994 85.7766 309.321 84.7007C308.694 83.5799 307.886 82.7281 306.9 82.1453C305.913 81.5625 304.725 81.2712 303.335 81.2712C302.528 81.2712 301.811 81.4281 301.183 81.7419C300.555 82.0108 300.062 82.4143 299.703 82.9523C299.389 83.4902 299.232 84.1179 299.232 84.8351C299.232 86.449 299.86 87.7043 301.116 88.6009C302.416 89.4975 303.985 90.2372 305.824 90.82L303.268 98.3514C300.578 97.5893 298.246 96.5806 296.273 95.3254C294.3 94.0253 292.776 92.4787 291.7 90.6855C290.623 88.8923 290.085 86.8301 290.085 84.4989C290.085 82.2574 290.623 80.3297 291.7 78.7158C292.82 77.102 294.3 75.8691 296.139 75.0174C297.977 74.1208 299.995 73.6725 302.192 73.6725C304.837 73.6725 307.057 74.1208 308.85 75.0174C310.644 75.8691 312.505 77.2813 314.433 79.2538L313.222 78.7831C313.715 77.214 314.59 76.026 315.845 75.2191C317.101 74.4121 318.424 74.0087 319.814 74.0087C321.383 74.0087 322.773 74.3225 323.984 74.9501C325.239 75.5777 326.405 76.4295 327.481 77.5054L326.001 78.5813C325.912 77.5951 325.822 76.6088 325.732 75.6226C325.688 74.6363 325.665 73.65 325.665 72.6638V69.2343H287.462V61.8373H341Z" fill="white"/>
<rect x="77" y="139" width="253" height="69" rx="34.5" fill="#FFC700"/>
<path d="M116.327 165.56V169.565H114.252C113.426 169.978 112.625 170.488 111.848 171.095C111.096 171.677 110.416 172.357 109.809 173.134C109.227 173.886 108.753 174.724 108.389 175.646C108.049 176.569 107.879 177.564 107.879 178.632C107.879 180.089 108.098 181.23 108.535 182.055C108.972 182.88 109.518 183.463 110.173 183.803C110.829 184.118 111.484 184.276 112.14 184.276C112.577 184.276 113.002 184.24 113.414 184.167C113.827 184.07 114.3 183.888 114.834 183.621L116.655 187.226C115.854 187.687 115.065 188.003 114.288 188.172C113.511 188.318 112.698 188.391 111.848 188.391C110.052 188.391 108.486 188.027 107.151 187.299C105.816 186.546 104.784 185.454 104.056 184.021C103.352 182.565 103 180.805 103 178.741C103 177.261 103.231 175.853 103.692 174.518C104.153 173.158 104.784 171.908 105.585 170.767C106.411 169.626 107.37 168.619 108.462 167.745C109.554 166.846 110.732 166.118 111.994 165.56H116.327Z" fill="#172430"/>
<path d="M142.123 165.56V169.565H138.627V188.209H133.821V176.702L134.731 178.268C134.246 177.661 133.796 177.2 133.384 176.884C132.995 176.545 132.619 176.375 132.255 176.375C131.964 176.375 131.697 176.46 131.454 176.629C131.211 176.799 130.92 177.139 130.58 177.649C130.24 178.159 129.742 178.936 129.087 179.98C128.407 181.048 127.764 181.922 127.157 182.601C126.55 183.257 125.919 183.73 125.264 184.021C124.632 184.313 123.892 184.458 123.042 184.458C122.314 184.458 121.61 184.337 120.93 184.094C120.251 183.851 119.583 183.427 118.928 182.82C118.297 182.189 117.653 181.303 116.998 180.162L120.348 178.086C120.833 178.863 121.246 179.421 121.586 179.761C121.926 180.077 122.326 180.234 122.787 180.234C123.103 180.234 123.394 180.162 123.661 180.016C123.953 179.87 124.28 179.543 124.645 179.033C125.033 178.499 125.518 177.673 126.101 176.557L127.011 175.61C127.667 174.396 128.286 173.546 128.868 173.061C129.451 172.575 130.167 172.333 131.017 172.333C131.672 172.333 132.255 172.491 132.765 172.806C133.299 173.097 133.894 173.559 134.549 174.19L133.966 174.335C133.942 173.874 133.906 173.401 133.857 172.915C133.833 172.406 133.821 171.908 133.821 171.422V169.565H115.614V165.56H142.123ZM124.79 179.251C124.572 177.746 124.341 176.557 124.098 175.683C123.856 174.785 123.455 174.093 122.897 173.607C122.314 173.097 121.537 172.721 120.566 172.478C119.595 172.211 118.369 171.993 116.889 171.823L118.236 167.635L120.821 168.946C122.205 169.189 123.322 169.48 124.171 169.82C125.021 170.16 125.688 170.597 126.174 171.131C126.659 171.641 127.011 172.296 127.23 173.097C127.448 173.874 127.606 174.833 127.703 175.974L124.79 179.251Z" fill="#172430"/>
<path d="M156.652 165.56V169.565H154.577C153.751 169.978 152.95 170.488 152.173 171.095C151.421 171.677 150.741 172.357 150.134 173.134C149.552 173.886 149.078 174.724 148.714 175.646C148.374 176.569 148.204 177.564 148.204 178.632C148.204 180.089 148.423 181.23 148.86 182.055C149.297 182.88 149.843 183.463 150.498 183.803C151.154 184.118 151.809 184.276 152.465 184.276C152.902 184.276 153.326 184.24 153.739 184.167C154.152 184.07 154.625 183.888 155.159 183.621L156.98 187.226C156.179 187.687 155.39 188.003 154.613 188.172C153.836 188.318 153.023 188.391 152.173 188.391C150.377 188.391 148.811 188.027 147.476 187.299C146.141 186.546 145.109 185.454 144.381 184.021C143.677 182.565 143.325 180.805 143.325 178.741C143.325 177.066 143.628 175.513 144.235 174.081C144.842 172.648 145.692 171.398 146.784 170.33C147.901 169.238 149.212 168.412 150.717 167.854L148.386 169.42C147.998 169.468 147.549 169.505 147.039 169.529C146.553 169.553 145.922 169.565 145.146 169.565H141.395V165.56H156.652Z" fill="#172430"/>
<path d="M187.873 165.56V169.565H176.003V171.75L176.075 173.243V188.209H171.269C170.371 186.898 169.278 185.745 167.992 184.75C166.729 183.754 165.321 182.929 163.768 182.274C162.214 181.594 160.527 181.108 158.706 180.817L156.886 176.52C159.119 175.282 161.559 174.093 164.205 172.952C166.875 171.787 169.497 170.864 172.07 170.184L171.378 171.24V169.565H155.939V165.56H187.873ZM171.269 173.68L172.034 174.481C170.965 174.797 169.934 175.137 168.938 175.501C167.967 175.865 166.996 176.265 166.025 176.702C165.054 177.115 164.047 177.576 163.003 178.086C163.998 178.28 165.03 178.62 166.098 179.106C167.191 179.567 168.247 180.174 169.266 180.926C170.31 181.679 171.245 182.553 172.07 183.548L171.415 183.949C171.39 183.512 171.354 183.026 171.305 182.492C171.281 181.958 171.269 181.387 171.269 180.781V173.68ZM186.344 178.814C186.344 179.615 186.174 180.38 185.834 181.108C185.519 181.837 184.96 182.431 184.159 182.893C183.358 183.354 182.241 183.584 180.809 183.584C180.299 183.584 179.826 183.572 179.389 183.548C178.976 183.499 178.588 183.439 178.224 183.366L178.369 179.36C178.491 179.385 178.637 179.409 178.806 179.433C179.001 179.433 179.243 179.433 179.535 179.433C180.409 179.433 180.979 179.288 181.246 178.996C181.513 178.681 181.647 178.304 181.647 177.868C181.647 177.042 181.125 176.314 180.081 175.683C179.037 175.052 177.508 174.566 175.493 174.226V170.257C177.483 170.524 179.292 171.034 180.918 171.787C182.569 172.515 183.88 173.474 184.851 174.663C185.846 175.828 186.344 177.212 186.344 178.814Z" fill="#172430"/>
<path d="M219.896 165.56V169.565H207.224V175.428C207.224 175.792 207.285 176.108 207.406 176.375C207.528 176.617 207.783 176.739 208.171 176.739C208.486 176.739 208.826 176.629 209.19 176.411C209.555 176.168 209.919 175.841 210.283 175.428C210.671 174.991 211.06 174.505 211.448 173.971L215.708 173.17C216.534 174.36 217.153 175.525 217.566 176.666C217.978 177.783 218.185 179.033 218.185 180.416C218.185 181.8 217.82 183.087 217.092 184.276C216.364 185.466 215.272 186.425 213.815 187.153C212.358 187.857 210.526 188.209 208.317 188.209C206.496 188.209 204.772 187.93 203.146 187.371C201.544 186.789 200.063 185.842 198.703 184.531C197.344 183.196 196.13 181.387 195.062 179.106L199.213 177.249C199.99 178.754 200.779 180.016 201.58 181.035C202.405 182.031 203.328 182.783 204.348 183.293C205.367 183.803 206.557 184.058 207.916 184.058C209.664 184.058 211.011 183.682 211.958 182.929C212.929 182.152 213.414 181.06 213.414 179.652C213.414 178.729 213.257 177.952 212.941 177.321C212.625 176.666 212.225 176.12 211.739 175.683H215.381C214.555 176.824 213.706 177.77 212.832 178.523C211.958 179.276 211.06 179.846 210.137 180.234C209.215 180.599 208.256 180.781 207.261 180.781C206.484 180.781 205.792 180.671 205.185 180.453C204.578 180.21 204.068 179.858 203.656 179.397C203.243 178.911 202.927 178.329 202.709 177.649C202.515 176.945 202.418 176.095 202.418 175.1V174.772L202.527 174.445C202.503 174.105 202.478 173.741 202.454 173.352C202.43 172.94 202.418 172.539 202.418 172.151V169.565H187.16V165.56H219.896ZM194.698 170.731C195.766 170.731 196.81 170.876 197.83 171.167C198.873 171.459 199.881 171.896 200.852 172.478C201.823 173.037 202.757 173.753 203.656 174.627L204.02 179.215C202.393 177.88 200.876 176.799 199.468 175.974C198.06 175.124 196.64 174.7 195.208 174.7C194.698 174.7 194.285 174.821 193.97 175.064C193.678 175.282 193.533 175.573 193.533 175.938C193.533 176.302 193.606 176.593 193.751 176.812C193.921 177.03 194.273 177.273 194.807 177.54L192.695 181.108C191.312 180.477 190.28 179.7 189.6 178.778C188.92 177.855 188.581 176.836 188.581 175.719C188.581 174.578 188.872 173.644 189.454 172.915C190.037 172.163 190.79 171.617 191.712 171.277C192.659 170.913 193.654 170.731 194.698 170.731Z" fill="#172430"/>
<path d="M250.553 165.56V169.565H236.352V180.234C236.352 181.06 236.401 181.667 236.498 182.055C236.595 182.443 236.741 182.735 236.935 182.929C237.275 183.293 237.833 183.475 238.61 183.475C239.265 183.475 239.896 183.342 240.503 183.075C241.11 182.783 241.729 182.334 242.36 181.727C242.894 181.242 243.307 180.72 243.598 180.162C243.89 179.603 244.035 179.033 244.035 178.45C244.035 177.989 243.89 177.613 243.598 177.321C243.307 177.03 242.834 176.884 242.178 176.884C241.863 176.884 241.571 176.897 241.304 176.921C241.062 176.945 240.831 176.981 240.613 177.03L239.957 173.097C240.491 172.976 241.025 172.879 241.559 172.806C242.093 172.733 242.712 172.697 243.416 172.697C244.703 172.697 245.735 172.915 246.512 173.352C247.288 173.789 247.859 174.372 248.223 175.1C248.587 175.828 248.769 176.654 248.769 177.576C248.769 178.911 248.49 180.162 247.932 181.327C247.373 182.468 246.633 183.499 245.71 184.422C244.739 185.369 243.623 186.121 242.36 186.68C241.098 187.214 239.751 187.481 238.319 187.481C237.008 187.481 235.988 187.359 235.26 187.117C234.532 186.874 233.913 186.522 233.403 186.061C232.893 185.624 232.456 184.98 232.092 184.131C231.728 183.281 231.546 181.97 231.546 180.198V169.565H228.232V165.56H250.553ZM242.433 165.56C242.409 164.807 242.215 164.273 241.851 163.958C241.486 163.618 240.843 163.448 239.921 163.448H237.19C235.345 163.448 233.84 163.278 232.674 162.938C231.534 162.574 230.635 162.028 229.98 161.299C229.519 160.79 229.179 160.195 228.96 159.515C228.766 158.811 228.669 158.01 228.669 157.112C228.669 156.748 228.681 156.42 228.705 156.129C228.73 155.813 228.778 155.437 228.851 155L233.403 155.291C233.378 155.51 233.354 155.704 233.33 155.874C233.33 156.044 233.33 156.202 233.33 156.347C233.33 156.857 233.378 157.318 233.476 157.731C233.597 158.119 233.791 158.447 234.058 158.714C234.325 158.957 234.665 159.139 235.078 159.26C235.49 159.382 236.158 159.442 237.081 159.442H239.957C241.389 159.442 242.518 159.552 243.344 159.77C244.193 159.989 244.909 160.377 245.492 160.935C245.953 161.397 246.305 162.003 246.548 162.756C246.815 163.484 246.961 164.419 246.985 165.56H242.433Z" fill="#172430"/>
<path d="M261.615 165.56V169.565H258.119V188.209H253.313V172.041C253.021 171.289 252.609 170.694 252.075 170.257C251.54 169.796 250.849 169.565 249.999 169.565H249.817V165.56H250.545C251.103 165.56 251.625 165.706 252.111 165.997C252.596 166.288 253.046 166.907 253.458 167.854C253.434 167.733 253.398 167.453 253.349 167.016C253.325 166.579 253.313 166.203 253.313 165.888V163.157H257.245L258.083 165.56H261.615Z" fill="#172430"/>
<path d="M274.13 165.56C274.106 164.807 273.912 164.273 273.548 163.958C273.184 163.618 272.54 163.448 271.618 163.448H269.47C267.625 163.448 266.12 163.278 264.954 162.938C263.813 162.574 262.915 162.028 262.26 161.299C261.798 160.79 261.459 160.195 261.24 159.515C261.046 158.811 260.949 158.01 260.949 157.112C260.949 156.748 260.961 156.42 260.985 156.129C261.01 155.813 261.058 155.437 261.131 155L265.683 155.291C265.658 155.51 265.634 155.704 265.61 155.874C265.61 156.044 265.61 156.202 265.61 156.347C265.61 156.857 265.658 157.318 265.755 157.731C265.877 158.119 266.071 158.447 266.338 158.714C266.605 158.957 266.945 159.139 267.358 159.26C267.77 159.382 268.438 159.442 269.36 159.442H271.654C273.087 159.442 274.215 159.552 275.041 159.77C275.89 159.989 276.607 160.377 277.189 160.935C277.65 161.397 278.002 162.003 278.245 162.756C278.512 163.484 278.658 164.419 278.682 165.56H274.13ZM270.817 170.548C273.05 170.548 274.822 170.888 276.133 171.568C277.468 172.223 278.427 173.061 279.01 174.081C279.592 175.1 279.884 176.144 279.884 177.212C279.884 179.203 279.253 180.732 277.99 181.8C276.752 182.844 274.992 183.548 272.71 183.912L271.873 182.419C273.087 182.735 274.288 183.123 275.478 183.584C276.667 184.046 277.845 184.592 279.01 185.223C280.199 185.854 281.365 186.57 282.505 187.371L279.957 190.758C278.816 189.932 277.602 189.168 276.315 188.464C275.053 187.76 273.706 187.129 272.273 186.57C270.865 185.988 269.385 185.478 267.831 185.041C266.277 184.604 264.639 184.252 262.915 183.985L263.716 180.162C264.566 180.38 265.391 180.55 266.192 180.671C267.018 180.793 267.843 180.853 268.668 180.853C270.222 180.853 271.46 180.708 272.383 180.416C273.305 180.101 273.973 179.676 274.385 179.142C274.822 178.608 275.041 177.977 275.041 177.249C275.041 176.375 274.701 175.671 274.021 175.137C273.366 174.602 272.431 174.335 271.217 174.335C270.513 174.335 269.943 174.396 269.506 174.518C269.093 174.639 268.79 174.833 268.596 175.1C268.426 175.343 268.341 175.646 268.341 176.01C268.341 176.132 268.365 176.277 268.414 176.447C268.462 176.617 268.511 176.763 268.559 176.884L264.044 177.54C263.898 177.176 263.777 176.763 263.68 176.302C263.583 175.816 263.534 175.367 263.534 174.954C263.534 174.081 263.825 173.316 264.408 172.66C264.991 171.981 265.828 171.459 266.921 171.095C268.013 170.731 269.312 170.548 270.817 170.548ZM266.52 172.624C266.399 171.823 266.035 171.131 265.428 170.548C264.821 169.966 263.947 169.541 262.806 169.274L265.573 167.672L267.248 168.072C268.608 168.631 269.591 169.25 270.198 169.929C270.805 170.609 271.157 171.471 271.254 172.515L266.52 172.624ZM282.469 165.56V169.565H260.876V165.56H282.469Z" fill="#172430"/>
<path d="M306 165.56V169.565H302.504V188.209H297.698V183.475L298.317 185.405C297.419 184.167 296.557 183.111 295.731 182.237C294.906 181.339 294.081 180.659 293.255 180.198C292.43 179.712 291.556 179.47 290.634 179.47C290.075 179.47 289.59 179.615 289.177 179.907C288.764 180.198 288.558 180.635 288.558 181.218C288.558 181.849 288.789 182.346 289.25 182.711C289.735 183.05 290.391 183.366 291.216 183.657L289.833 187.845C288.376 187.432 287.186 186.874 286.264 186.17C285.366 185.441 284.698 184.64 284.261 183.766C283.824 182.893 283.606 181.994 283.606 181.072C283.606 179.785 283.909 178.729 284.516 177.904C285.123 177.079 285.9 176.472 286.847 176.083C287.818 175.695 288.813 175.501 289.833 175.501C291.022 175.501 292.114 175.658 293.11 175.974C294.129 176.29 295.076 176.787 295.95 177.467C296.824 178.122 297.674 178.984 298.499 180.052L297.771 180.599C297.746 180.016 297.722 179.433 297.698 178.851C297.698 178.244 297.698 177.649 297.698 177.066V169.565H281.785V165.56H306ZM293.838 176.52C293.838 176.642 293.826 176.824 293.802 177.066C293.802 177.285 293.777 177.503 293.729 177.722L289.031 176.52C288.983 175.379 288.777 174.481 288.412 173.826C288.048 173.17 287.441 172.673 286.592 172.333C285.742 171.993 284.528 171.75 282.95 171.604L283.897 167.927L285.936 168.509C287.393 168.679 288.619 168.971 289.614 169.383C290.634 169.796 291.447 170.33 292.054 170.985C292.685 171.617 293.134 172.393 293.401 173.316C293.692 174.238 293.838 175.306 293.838 176.52Z" fill="#172430"/>
<g opacity="0.15">
<path d="M307.27 182.373L336.242 182.373L338.942 182.373L338.942 179.672L338.942 150.701L364.184 150.701L364.184 179.672L364.184 182.373L366.885 182.373L395.857 182.373L395.857 207.615L366.897 207.615L364.184 207.615L364.184 210.316L364.184 239.299L338.942 239.299L338.942 210.328L338.942 207.627L336.242 207.627L307.27 207.627L307.27 182.373ZM304.558 179.672L304.558 210.328L336.242 210.328L336.242 242L366.897 242L366.897 210.328L398.569 210.328L398.569 179.672L366.897 179.672L366.897 148L336.242 148L336.242 179.672L304.558 179.672Z" fill="white"/>
<path d="M71.0089 34.0408L92.6417 34.0408L94.6692 34.0408L94.6692 32.0133L94.6692 10.3805L113.53 10.3805L113.53 32.0133L113.53 34.0408L115.558 34.0408L137.191 34.0408L137.191 52.9021L115.558 52.9021L113.53 52.9021L113.53 54.9296L113.53 76.5624L94.6692 76.5624L94.6692 54.9296L94.6692 52.9021L92.6417 52.9021L71.0089 52.9021L71.0089 34.0408ZM69 32.0133L69 54.911L92.6603 54.911L92.6603 78.5713L115.558 78.5713L115.558 54.911L139.218 54.911L139.218 32.0133L115.558 32.0133L115.558 8.35303L92.6603 8.35303L92.6603 32.0133L69 32.0133Z" fill="white"/>
</g>
<path opacity="0.12" fill-rule="evenodd" clip-rule="evenodd" d="M58.553 163.134C53.1608 157.67 44.3592 157.613 38.8956 163.019L38.7815 163.134L27.2267 174.688C26.9984 174.817 26.813 175.002 26.6846 175.23L15.0585 186.842C9.63768 192.277 9.65195 201.079 15.0727 206.5C20.5363 211.906 29.3237 211.906 34.8015 206.5L34.8158 206.486L46.4276 194.831C46.5132 194.774 46.5845 194.717 46.6559 194.645C46.7272 194.574 46.7843 194.503 46.8413 194.417L58.4389 182.791C63.9025 177.399 63.9453 168.597 58.553 163.134ZM32.7901 204.474C28.4392 208.768 21.435 208.782 17.0841 204.474C12.7903 200.152 12.7903 193.176 17.0841 188.854L27.9827 177.955L43.6174 193.618L32.7901 204.474ZM56.4275 180.751L45.6288 191.578L29.9941 175.944L40.8071 165.131C45.1152 160.823 52.1194 160.823 56.4275 165.131C60.7356 169.439 60.7356 176.443 56.4275 180.751ZM45.3582 169.524C44.8162 168.954 43.9174 168.939 43.3468 169.51L38.4111 174.36C37.8405 174.917 37.8405 175.815 38.3826 176.372C38.9246 176.928 39.8376 176.942 40.3939 176.4L40.4082 176.386L45.3297 171.536C45.9003 170.979 45.9003 170.081 45.3582 169.524ZM67.9395 196.371L67.9537 196.386C73.346 201.792 73.346 210.551 67.9395 215.958C62.533 221.35 53.7599 221.35 48.3676 215.943C42.9754 210.537 42.9754 201.778 48.3819 196.371L48.5103 196.243C53.9168 190.908 62.6186 190.965 67.9395 196.371ZM58.1678 195.173C52.1051 195.173 47.1836 200.095 47.1836 206.157C47.1836 208.568 47.9825 210.922 49.4518 212.848L64.8439 197.441C62.9324 195.972 60.5786 195.173 58.1678 195.173ZM51.4774 214.859C55.8426 218.211 62.0337 217.812 65.9281 213.918C69.8368 210.023 70.2362 203.832 66.8696 199.467L51.4774 214.859Z" fill="white"/>
<defs>
<linearGradient id="paint0_linear_519_23" x1="0" y1="250" x2="407" y2="4.56333e-07" gradientUnits="userSpaceOnUse">
<stop stop-color="#CE166F"/>
<stop offset="0.5" stop-color="#7C1B81"/>
<stop offset="1" stop-color="#321575"/>
</linearGradient>
</defs>
</svg>
