<svg width="407" height="250" viewBox="0 0 407 250" fill="none" xmlns="http://www.w3.org/2000/svg">
<rect x="407" y="250" width="407" height="250" transform="rotate(-180 407 250)" fill="url(#paint0_linear_501_23)"/>
<path d="M197.36 127.12V131.52H195.08C194.173 131.973 193.293 132.533 192.44 133.2C191.613 133.84 190.866 134.587 190.2 135.44C189.56 136.267 189.04 137.187 188.64 138.2C188.266 139.213 188.08 140.307 188.08 141.48C188.08 143.08 188.32 144.333 188.8 145.24C189.28 146.147 189.88 146.787 190.6 147.16C191.32 147.507 192.04 147.68 192.76 147.68C193.24 147.68 193.706 147.64 194.16 147.56C194.613 147.453 195.133 147.253 195.72 146.96L197.72 150.92C196.84 151.427 195.973 151.773 195.12 151.96C194.266 152.12 193.373 152.2 192.44 152.2C190.466 152.2 188.746 151.8 187.28 151C185.813 150.173 184.68 148.973 183.88 147.4C183.106 145.8 182.72 143.867 182.72 141.6C182.72 139.973 182.973 138.427 183.48 136.96C183.986 135.467 184.68 134.093 185.56 132.84C186.466 131.587 187.52 130.48 188.72 129.52C189.92 128.533 191.213 127.733 192.6 127.12H197.36Z" fill="white"/>
<path d="M223.176 127.12V131.52H219.336V152H214.056V146.8L214.736 148.92C213.75 147.56 212.803 146.4 211.896 145.44C210.99 144.453 210.083 143.707 209.176 143.2C208.27 142.667 207.31 142.4 206.296 142.4C205.683 142.4 205.15 142.56 204.696 142.88C204.243 143.2 204.016 143.68 204.016 144.32C204.016 145.013 204.27 145.56 204.776 145.96C205.31 146.333 206.03 146.68 206.936 147L205.416 151.6C203.816 151.147 202.51 150.533 201.496 149.76C200.51 148.96 199.776 148.08 199.296 147.12C198.816 146.16 198.576 145.173 198.576 144.16C198.576 142.747 198.91 141.587 199.576 140.68C200.243 139.773 201.096 139.107 202.136 138.68C203.203 138.253 204.296 138.04 205.416 138.04C206.723 138.04 207.923 138.213 209.016 138.56C210.136 138.907 211.176 139.453 212.136 140.2C213.096 140.92 214.03 141.867 214.936 143.04L214.136 143.64C214.11 143 214.083 142.36 214.056 141.72C214.056 141.053 214.056 140.4 214.056 139.76V131.52H196.576V127.12H223.176ZM209.816 139.16C209.816 139.293 209.803 139.493 209.776 139.76C209.776 140 209.75 140.24 209.696 140.48L204.536 139.16C204.483 137.907 204.256 136.92 203.856 136.2C203.456 135.48 202.79 134.933 201.856 134.56C200.923 134.187 199.59 133.92 197.856 133.76L198.896 129.72L201.136 130.36C202.736 130.547 204.083 130.867 205.176 131.32C206.296 131.773 207.19 132.36 207.856 133.08C208.55 133.773 209.043 134.627 209.336 135.64C209.656 136.653 209.816 137.827 209.816 139.16Z" fill="white"/>
<path d="M235.318 127.12V131.52H231.478V152H226.198V131.52H222.358V127.12H226.238C225.811 126.64 225.344 126.093 224.838 125.48C224.358 124.867 223.931 124.307 223.558 123.8C224.891 121.64 226.198 119.947 227.478 118.72C228.784 117.493 230.158 116.627 231.598 116.12C233.038 115.587 234.624 115.32 236.358 115.32C237.638 115.32 238.851 115.427 239.998 115.64C241.171 115.853 242.384 116.227 243.638 116.76C244.918 117.267 246.331 117.96 247.878 118.84C249.424 119.693 251.224 120.76 253.278 122.04L250.558 125.6C248.398 124.213 246.558 123.093 245.038 122.24C243.518 121.36 242.131 120.72 240.878 120.32C239.624 119.92 238.304 119.72 236.918 119.72C235.664 119.72 234.571 119.96 233.638 120.44C232.704 120.92 231.891 121.52 231.198 122.24C230.531 122.96 229.944 123.707 229.438 124.48C229.678 124.907 229.958 125.36 230.278 125.84C230.598 126.32 230.931 126.747 231.278 127.12H235.318Z" fill="white"/>
<path d="M264.946 127.12V131.52H251.026V136.68C251.026 137.08 251.093 137.427 251.226 137.72C251.359 137.987 251.639 138.12 252.066 138.12C252.413 138.12 252.786 138 253.186 137.76C253.586 137.493 253.986 137.133 254.386 136.68C254.813 136.2 255.239 135.667 255.666 135.08L260.346 134.2C261.253 135.507 261.933 136.827 262.386 138.16C262.839 139.467 263.066 140.88 263.066 142.4C263.066 144.08 262.653 145.587 261.826 146.92C261.026 148.227 259.813 149.267 258.186 150.04C256.586 150.813 254.599 151.2 252.226 151.2C250.466 151.2 248.773 150.947 247.146 150.44C245.519 149.933 243.986 149.08 242.546 147.88C241.133 146.653 239.826 144.987 238.626 142.88C237.453 140.747 236.426 138.08 235.546 134.88L240.546 133.48C241.426 136.653 242.426 139.213 243.546 141.16C244.666 143.08 245.906 144.48 247.266 145.36C248.653 146.213 250.159 146.64 251.786 146.64C253.706 146.64 255.186 146.213 256.226 145.36C257.293 144.48 257.826 143.267 257.826 141.72C257.826 140.68 257.639 139.827 257.266 139.16C256.893 138.493 256.466 137.867 255.986 137.28L260.066 136.96C259.106 138.24 258.133 139.293 257.146 140.12C256.159 140.947 255.159 141.56 254.146 141.96C253.159 142.36 252.133 142.56 251.066 142.56C250.213 142.56 249.453 142.44 248.786 142.2C248.119 141.933 247.559 141.547 247.106 141.04C246.653 140.533 246.306 139.88 246.066 139.08C245.853 138.28 245.746 137.253 245.746 136V131.52H234.506V127.12H264.946Z" fill="white"/>
<path d="M280.914 127.12V131.52H278.634C277.728 131.973 276.848 132.533 275.994 133.2C275.168 133.84 274.421 134.587 273.754 135.44C273.114 136.267 272.594 137.187 272.194 138.2C271.821 139.213 271.634 140.307 271.634 141.48C271.634 143.08 271.874 144.333 272.354 145.24C272.834 146.147 273.434 146.787 274.154 147.16C274.874 147.507 275.594 147.68 276.314 147.68C276.794 147.68 277.261 147.64 277.714 147.56C278.168 147.453 278.688 147.253 279.274 146.96L281.274 150.92C280.394 151.427 279.528 151.773 278.674 151.96C277.821 152.12 276.928 152.2 275.994 152.2C274.021 152.2 272.301 151.8 270.834 151C269.368 150.173 268.234 148.973 267.434 147.4C266.661 145.8 266.274 143.867 266.274 141.6C266.274 139.76 266.608 138.053 267.274 136.48C267.941 134.907 268.874 133.533 270.074 132.36C271.301 131.16 272.741 130.253 274.394 129.64L271.834 131.36C271.408 131.413 270.914 131.453 270.354 131.48C269.821 131.507 269.128 131.52 268.274 131.52H264.154V127.12H280.914Z" fill="white"/>
<path d="M315.211 127.12V131.52H302.171V133.92L302.251 135.56V152H296.971C295.984 150.56 294.784 149.293 293.371 148.2C291.984 147.107 290.438 146.2 288.731 145.48C287.024 144.733 285.171 144.2 283.171 143.88L281.171 139.16C283.624 137.8 286.304 136.493 289.211 135.24C292.144 133.96 295.024 132.947 297.851 132.2L297.091 133.36V131.52H280.131V127.12H315.211ZM296.971 136.04L297.811 136.92C296.638 137.267 295.504 137.64 294.411 138.04C293.344 138.44 292.278 138.88 291.211 139.36C290.144 139.813 289.038 140.32 287.891 140.88C288.984 141.093 290.118 141.467 291.291 142C292.491 142.507 293.651 143.173 294.771 144C295.918 144.827 296.944 145.787 297.851 146.88L297.131 147.32C297.104 146.84 297.064 146.307 297.011 145.72C296.984 145.133 296.971 144.507 296.971 143.84V136.04ZM313.531 141.68C313.531 142.56 313.344 143.4 312.971 144.2C312.624 145 312.011 145.653 311.131 146.16C310.251 146.667 309.024 146.92 307.451 146.92C306.891 146.92 306.371 146.907 305.891 146.88C305.438 146.827 305.011 146.76 304.611 146.68L304.771 142.28C304.904 142.307 305.064 142.333 305.251 142.36C305.464 142.36 305.731 142.36 306.051 142.36C307.011 142.36 307.638 142.2 307.931 141.88C308.224 141.533 308.371 141.12 308.371 140.64C308.371 139.733 307.798 138.933 306.651 138.24C305.504 137.547 303.824 137.013 301.611 136.64V132.28C303.798 132.573 305.784 133.133 307.571 133.96C309.384 134.76 310.824 135.813 311.891 137.12C312.984 138.4 313.531 139.92 313.531 141.68Z" fill="white"/>
<path d="M346.268 127.12V131.52H342.428V152H337.148V139.4L338.228 141.68C337.801 140.907 337.295 140.24 336.708 139.68C336.121 139.12 335.455 138.84 334.708 138.84C334.441 138.84 334.135 138.907 333.788 139.04C333.468 139.173 333.188 139.427 332.948 139.8C332.735 140.173 332.628 140.72 332.628 141.44C332.628 141.68 332.641 141.907 332.668 142.12C332.695 142.307 332.721 142.507 332.748 142.72L328.228 143C328.095 142.12 327.828 141.36 327.428 140.72C327.055 140.053 326.575 139.547 325.988 139.2C325.401 138.853 324.695 138.68 323.868 138.68C323.388 138.68 322.961 138.773 322.588 138.96C322.215 139.12 321.921 139.36 321.708 139.68C321.521 140 321.428 140.373 321.428 140.8C321.428 141.76 321.801 142.507 322.548 143.04C323.321 143.573 324.255 144.013 325.348 144.36L323.828 148.84C322.228 148.387 320.841 147.787 319.668 147.04C318.495 146.267 317.588 145.347 316.948 144.28C316.308 143.213 315.988 141.987 315.988 140.6C315.988 139.267 316.308 138.12 316.948 137.16C317.615 136.2 318.495 135.467 319.588 134.96C320.681 134.427 321.881 134.16 323.188 134.16C324.761 134.16 326.081 134.427 327.148 134.96C328.215 135.467 329.321 136.307 330.468 137.48L329.748 137.2C330.041 136.267 330.561 135.56 331.308 135.08C332.055 134.6 332.841 134.36 333.668 134.36C334.601 134.36 335.428 134.547 336.148 134.92C336.895 135.293 337.588 135.8 338.228 136.44L337.348 137.08C337.295 136.493 337.241 135.907 337.188 135.32C337.161 134.733 337.148 134.147 337.148 133.56V131.52H314.428V127.12H346.268Z" fill="white"/>
<path d="M92.5554 106.885V117.656H83.2056V167.79H70.3497V117.656H61V106.885H70.4471C69.4083 105.645 68.272 104.242 67.0384 102.675C65.8697 101.043 64.8308 99.607 63.9218 98.3667C67.6227 93.275 71.2587 89.2605 74.8298 86.323C78.4658 83.3202 82.2642 81.1987 86.2248 79.9584C90.2504 78.6528 94.6656 78 99.4703 78C103.171 78 106.742 78.2938 110.184 78.8813C113.625 79.4035 117.196 80.2848 120.897 81.525C124.598 82.7653 128.623 84.4299 132.974 86.5188C137.324 88.5424 142.226 91.0556 147.68 94.0584L141.641 103.067C136.772 100.521 132.487 98.3341 128.786 96.5063C125.085 94.6785 121.676 93.2098 118.559 92.1C115.508 90.925 112.553 90.0764 109.697 89.5542C106.905 89.032 103.95 88.7709 100.834 88.7709C97.2627 88.7709 94.0487 89.3584 91.1919 90.5334C88.3999 91.7084 85.9326 93.2098 83.79 95.0375C81.7123 96.8 79.8943 98.6278 78.336 100.521C78.9203 101.565 79.5696 102.675 80.2838 103.85C81.063 104.96 81.8746 105.972 82.7187 106.885H92.5554Z" fill="white"/>
<path d="M172 106.885V117.656H162.65V151.731H149.794V129.406L150.379 134.4C148.366 131.658 146.353 129.21 144.34 127.056C142.328 124.902 140.282 123.074 138.205 121.573C136.192 120.072 134.147 118.929 132.069 118.146C130.056 117.363 127.978 116.971 125.836 116.971C123.239 116.971 120.869 117.46 118.726 118.44C116.648 119.419 114.7 120.757 112.882 122.454C111.129 124.151 109.344 126.142 107.526 128.427L107.234 126.175C108.532 125.326 109.928 124.576 111.421 123.923C112.98 123.205 114.798 122.846 116.875 122.846C120.122 122.846 122.459 123.76 123.888 125.588C125.381 127.35 126.128 129.341 126.128 131.56C126.128 132.605 126.095 133.584 126.03 134.498C126.03 135.412 125.966 136.032 125.836 136.358L122.816 135.477C123.466 134.694 124.212 133.878 125.057 133.029C125.966 132.115 126.907 131.201 127.881 130.288C128.855 129.374 129.796 128.525 130.705 127.742L142.392 117.558L150.087 125.294L121.258 151.633L112.395 143.31L121.55 134.89L117.849 139.883L113.856 142.233C114.96 141.124 115.804 139.981 116.389 138.806C116.973 137.631 117.265 136.522 117.265 135.477C117.265 133.91 116.843 132.801 115.999 132.148C115.155 131.43 114.084 131.071 112.785 131.071C111.941 131.071 111.064 131.234 110.155 131.56C109.311 131.822 108.402 132.246 107.428 132.833L97.7864 123.923C100.773 120.202 103.63 117.036 106.357 114.425C109.149 111.749 112.071 109.725 115.122 108.354C118.239 106.918 121.68 106.2 125.446 106.2C128.757 106.2 131.777 106.755 134.504 107.865C137.231 108.974 139.893 110.574 142.49 112.663C145.152 114.751 147.911 117.265 150.768 120.202L150.379 122.258C150.249 120.953 150.119 119.451 149.989 117.754C149.859 116.057 149.794 114.392 149.794 112.76V100.423H160.313L162.553 106.885H172ZM162.65 172H149.989C149.47 170.694 148.691 169.617 147.652 168.769C146.678 167.985 145.444 167.398 143.951 167.006C142.522 166.615 140.802 166.419 138.789 166.419C135.867 166.419 132.621 166.713 129.05 167.3C125.543 167.822 121.713 168.083 117.557 168.083C115.09 168.083 112.525 167.855 109.863 167.398C107.201 166.941 104.701 166.06 102.364 164.754C100.026 163.449 98.1436 161.523 96.7151 158.977C95.2867 156.366 94.5725 152.906 94.5725 148.598C94.5725 147.162 94.6699 145.595 94.8647 143.898C95.1244 142.201 95.3841 140.732 95.6438 139.492L107.915 141.156C107.656 142.005 107.428 143.017 107.234 144.192C107.104 145.367 107.039 146.542 107.039 147.717C107.039 150.393 107.558 152.417 108.597 153.788C109.701 155.158 111.129 156.072 112.882 156.529C114.7 156.986 116.713 157.215 118.921 157.215C122.492 157.215 125.706 156.954 128.563 156.431C131.42 155.844 134.536 155.55 137.912 155.55C140.315 155.55 142.522 156.007 144.535 156.921C146.613 157.769 148.366 159.075 149.794 160.838V147.815H162.65V172Z" fill="white"/>
<g opacity="0.15">
<path d="M306.27 182.373L335.242 182.373L337.942 182.373L337.942 179.672L337.942 150.701L363.184 150.701L363.184 179.672L363.184 182.373L365.885 182.373L394.857 182.373L394.857 207.615L365.897 207.615L363.184 207.615L363.184 210.316L363.184 239.299L337.942 239.299L337.942 210.328L337.942 207.627L335.242 207.627L306.27 207.627L306.27 182.373ZM303.558 179.672L303.558 210.328L335.242 210.328L335.242 242L365.897 242L365.897 210.328L397.569 210.328L397.569 179.672L365.897 179.672L365.897 148L335.242 148L335.242 179.672L303.558 179.672Z" fill="white"/>
<path d="M214.459 31.6572L230.171 31.6572L231.644 31.6572L231.644 30.1847L231.644 14.4726L245.343 14.4726L245.343 30.1847L245.343 31.6572L246.815 31.6572L262.527 31.6572L262.527 45.3563L246.815 45.3563L245.343 45.3563L245.343 46.8289L245.343 62.541L231.644 62.541L231.644 46.8289L231.644 45.3563L230.171 45.3563L214.459 45.3563L214.459 31.6572ZM213 30.1847L213 46.8154L230.185 46.8154L230.185 64L246.815 64L246.815 46.8154L264 46.8154L264 30.1847L246.815 30.1847L246.815 13L230.185 13L230.185 30.1847L213 30.1847Z" fill="white"/>
</g>
<path opacity="0.12" fill-rule="evenodd" clip-rule="evenodd" d="M57.553 163.134C52.1608 157.67 43.3592 157.613 37.8956 163.019L37.7815 163.134L26.2267 174.688C25.9984 174.817 25.813 175.002 25.6846 175.23L14.0585 186.842C8.63768 192.277 8.65195 201.079 14.0727 206.5C19.5363 211.906 28.3237 211.906 33.8015 206.5L33.8158 206.486L45.4276 194.831C45.5132 194.774 45.5845 194.717 45.6559 194.645C45.7272 194.574 45.7843 194.503 45.8413 194.417L57.4389 182.791C62.9025 177.399 62.9453 168.597 57.553 163.134ZM31.7901 204.474C27.4392 208.768 20.435 208.782 16.0841 204.474C11.7903 200.152 11.7903 193.176 16.0841 188.854L26.9827 177.955L42.6174 193.618L31.7901 204.474ZM55.4275 180.751L44.6288 191.578L28.9941 175.944L39.8071 165.131C44.1152 160.823 51.1194 160.823 55.4275 165.131C59.7356 169.439 59.7356 176.443 55.4275 180.751ZM44.3582 169.524C43.8162 168.954 42.9174 168.94 42.3468 169.51L37.4111 174.36C36.8405 174.917 36.8405 175.815 37.3826 176.372C37.9246 176.928 38.8376 176.942 39.3939 176.4L39.4082 176.386L44.3297 171.536C44.9003 170.979 44.9003 170.081 44.3582 169.524ZM66.9395 196.371L66.9537 196.386C72.346 201.792 72.346 210.551 66.9395 215.958C61.533 221.35 52.7599 221.35 47.3676 215.943C41.9754 210.537 41.9754 201.778 47.3819 196.371L47.5103 196.243C52.9168 190.908 61.6186 190.965 66.9395 196.371ZM57.1678 195.173C51.1051 195.173 46.1836 200.095 46.1836 206.157C46.1836 208.568 46.9825 210.922 48.4518 212.848L63.8439 197.441C61.9324 195.972 59.5786 195.173 57.1678 195.173ZM50.4774 214.859C54.8426 218.211 61.0337 217.812 64.9281 213.918C68.8368 210.023 69.2362 203.832 65.8696 199.467L50.4774 214.859Z" fill="white"/>
<path opacity="0.15" d="M175.5 203.734H182.891M182.891 203.734L184.906 200.375L189.609 207.766L195.656 195L200.359 203.734M182.891 203.734H125M200.359 203.734H209.094M200.359 203.734H253.5" stroke="white" stroke-width="2" stroke-miterlimit="10" stroke-linecap="round" stroke-linejoin="round"/>
<defs>
<linearGradient id="paint0_linear_501_23" x1="407" y1="375" x2="814" y2="375" gradientUnits="userSpaceOnUse">
<stop stop-color="#1E3C72"/>
<stop offset="0.01" stop-color="#1E3C72"/>
<stop offset="1" stop-color="#2A5298"/>
</linearGradient>
</defs>
</svg>
