<svg width="407" height="250" viewBox="0 0 407 250" fill="none" xmlns="http://www.w3.org/2000/svg">
<rect x="407" y="250" width="407" height="250" transform="rotate(180 407 250)" fill="url(#paint0_linear_519_25)"/>
<path d="M213.016 151.182V156.486H208.409V181.174H202.075V174.905L202.891 177.461C201.708 175.821 200.572 174.423 199.484 173.266C198.397 172.077 197.309 171.176 196.221 170.566C195.134 169.923 193.982 169.601 192.767 169.601C192.031 169.601 191.391 169.794 190.847 170.18C190.303 170.566 190.031 171.144 190.031 171.916C190.031 172.752 190.335 173.411 190.943 173.893C191.583 174.343 192.447 174.761 193.534 175.146L191.711 180.691C189.792 180.145 188.224 179.406 187.008 178.473C185.825 177.509 184.945 176.448 184.369 175.291C183.794 174.134 183.506 172.944 183.506 171.723C183.506 170.019 183.906 168.621 184.705 167.528C185.505 166.435 186.529 165.631 187.776 165.117C189.056 164.603 190.367 164.346 191.711 164.346C193.278 164.346 194.718 164.555 196.029 164.973C197.373 165.39 198.621 166.049 199.772 166.949C200.924 167.817 202.043 168.958 203.131 170.373L202.171 171.096C202.139 170.325 202.107 169.553 202.075 168.782C202.075 167.978 202.075 167.191 202.075 166.419V156.486H181.106V151.182H213.016ZM196.989 165.696C196.989 165.856 196.973 166.098 196.941 166.419C196.941 166.708 196.909 166.998 196.845 167.287L190.655 165.696C190.591 164.185 190.319 162.996 189.84 162.128C189.36 161.26 188.56 160.601 187.44 160.151C186.321 159.701 184.721 159.379 182.642 159.186L183.89 154.316L186.577 155.088C188.496 155.313 190.111 155.699 191.423 156.245C192.767 156.792 193.838 157.499 194.638 158.367C195.47 159.203 196.061 160.231 196.413 161.453C196.797 162.674 196.989 164.089 196.989 165.696Z" fill="white"/>
<path d="M226.669 151.182V156.486H222.83L225.661 155.57C224.765 156.374 224.046 157.129 223.502 157.836C222.99 158.544 222.622 159.251 222.398 159.958C222.174 160.665 222.062 161.453 222.062 162.321C222.062 163.381 222.19 164.49 222.446 165.648C222.734 166.773 223.006 167.93 223.262 169.119C223.55 170.276 223.694 171.434 223.694 172.591C223.694 173.909 223.534 175.13 223.214 176.255C222.926 177.38 222.382 178.409 221.583 179.341C220.783 180.241 219.663 181.045 218.224 181.752C216.784 182.491 214.913 183.134 212.609 183.681L211.218 178.473C213.009 178.023 214.337 177.509 215.201 176.93C216.064 176.352 216.624 175.693 216.88 174.954C217.168 174.214 217.312 173.411 217.312 172.543C217.312 171.321 217.168 170.148 216.88 169.023C216.624 167.898 216.352 166.789 216.064 165.696C215.808 164.603 215.68 163.478 215.68 162.321C215.68 161.356 215.792 160.52 216.016 159.813C216.24 159.074 216.576 158.367 217.024 157.692C217.504 157.017 218.08 156.309 218.751 155.57L218.176 156.486H212.034V151.182H226.669Z" fill="white"/>
<path d="M241.263 151.182V156.486H236.657V181.174H230.323V159.765C229.939 158.769 229.395 157.981 228.692 157.402C227.988 156.792 227.076 156.486 225.957 156.486H225.717V151.182H226.676C227.412 151.182 228.1 151.375 228.74 151.761C229.379 152.147 229.971 152.966 230.515 154.22C230.483 154.059 230.435 153.69 230.371 153.111C230.339 152.532 230.323 152.034 230.323 151.616V148H235.505L236.609 151.182H241.263Z" fill="white"/>
<path d="M275.702 151.182V156.486H271.096V181.174H264.762C263.258 179.341 261.659 177.798 259.963 176.545C258.3 175.291 256.429 174.262 254.349 173.459C252.302 172.623 249.935 171.996 247.248 171.578L245.712 165.985L248.543 167.142C251.646 167.464 254.173 167.994 256.125 168.733C258.108 169.441 259.771 170.276 261.115 171.241C262.459 172.173 263.706 173.137 264.858 174.134C264.826 173.394 264.794 172.655 264.762 171.916C264.762 171.144 264.762 170.341 264.762 169.505V148H269.944L271.048 151.182H275.702ZM251.662 151.038C254.093 151.038 256.061 151.44 257.564 152.243C259.1 153.015 260.235 154.043 260.971 155.329C261.707 156.615 262.075 157.981 262.075 159.428C262.075 162.096 261.051 164.281 259.004 165.985C256.956 167.689 254.173 168.766 250.654 169.216L247.631 168.541L245.712 165.985C248.143 165.535 250.079 165.021 251.518 164.442C252.99 163.831 254.061 163.124 254.733 162.321C255.405 161.517 255.741 160.617 255.741 159.62C255.741 158.688 255.405 157.885 254.733 157.21C254.061 156.534 253.054 156.197 251.71 156.197C250.718 156.197 249.983 156.39 249.503 156.776C249.055 157.129 248.831 157.531 248.831 157.981C248.831 158.399 248.959 158.785 249.215 159.138C249.471 159.46 249.807 159.765 250.223 160.054L246.288 164.008C245.744 163.622 245.168 163.172 244.561 162.658C243.985 162.112 243.505 161.453 243.121 160.681C242.737 159.91 242.545 158.994 242.545 157.933C242.545 156.679 242.881 155.538 243.553 154.509C244.225 153.449 245.232 152.613 246.576 152.002C247.919 151.359 249.615 151.038 251.662 151.038Z" fill="white"/>
<path d="M165 161.857V169.226H131V161.857H165ZM151.986 148V184H144.048V148H151.986Z" fill="white"/>
<path d="M90.6166 85.8373V93.2343H86.7829C85.2583 93.9964 83.7787 94.9378 82.3438 96.0586C80.9538 97.1345 79.6983 98.3897 78.5773 99.8243C77.5012 101.214 76.6268 102.761 75.9543 104.464C75.3265 106.168 75.0126 108.006 75.0126 109.978C75.0126 112.668 75.4162 114.775 76.2233 116.299C77.0304 117.824 78.0393 118.899 79.2499 119.527C80.4606 120.11 81.6712 120.401 82.8819 120.401C83.689 120.401 84.4737 120.334 85.2359 120.2C85.9982 120.02 86.8726 119.684 87.859 119.191L91.2219 125.848C89.7422 126.7 88.285 127.283 86.8501 127.597C85.4153 127.866 83.9132 128 82.3438 128C79.0257 128 76.1336 127.328 73.6675 125.983C71.2013 124.593 69.2957 122.576 67.9505 119.931C66.6502 117.241 66 113.991 66 110.18C66 107.445 66.426 104.845 67.2779 102.38C68.1299 99.8691 69.2957 97.5604 70.7754 95.4534C72.2999 93.3463 74.071 91.4859 76.0888 89.872C78.1065 88.2133 80.2812 86.8684 82.6128 85.8373H90.6166Z" fill="white"/>
<path d="M134.026 85.8373V93.2343H127.569V127.664H118.691V118.922L119.835 122.486C118.176 120.2 116.584 118.249 115.059 116.636C113.535 114.977 112.01 113.722 110.486 112.87C108.961 111.973 107.347 111.525 105.643 111.525C104.612 111.525 103.715 111.794 102.953 112.332C102.19 112.87 101.809 113.677 101.809 114.753C101.809 115.918 102.235 116.837 103.087 117.51C103.984 118.137 105.195 118.72 106.719 119.258L104.163 126.991C101.473 126.229 99.276 125.198 97.5721 123.898C95.913 122.553 94.68 121.074 93.8729 119.46C93.0658 117.846 92.6622 116.187 92.6622 114.484C92.6622 112.108 93.2227 110.158 94.3437 108.633C95.4647 107.109 96.8995 105.988 98.6482 105.271C100.442 104.554 102.28 104.195 104.163 104.195C106.361 104.195 108.378 104.487 110.217 105.069C112.1 105.652 113.849 106.571 115.463 107.826C117.077 109.037 118.646 110.628 120.171 112.601L118.826 113.61C118.781 112.534 118.736 111.458 118.691 110.382C118.691 109.261 118.691 108.163 118.691 107.087V93.2343H89.2993V85.8373H134.026ZM111.562 106.078C111.562 106.302 111.539 106.638 111.495 107.087C111.495 107.49 111.45 107.894 111.36 108.297L102.684 106.078C102.594 103.971 102.213 102.312 101.54 101.102C100.868 99.8915 99.7468 98.9725 98.1774 98.3449C96.608 97.7173 94.3661 97.269 91.4516 97L93.2003 90.2082L96.9668 91.2842C99.6571 91.598 101.921 92.1359 103.76 92.8981C105.643 93.6602 107.145 94.6464 108.266 95.8568C109.432 97.0224 110.262 98.457 110.755 100.161C111.293 101.864 111.562 103.837 111.562 106.078Z" fill="white"/>
<path d="M154.441 85.8373V93.2343H147.984V127.664H139.106V93.2343H132.649V85.8373H139.174C138.456 85.0304 137.671 84.1114 136.82 83.0803C136.012 82.0492 135.295 81.1077 134.667 80.256C136.909 76.6247 139.106 73.778 141.259 71.7158C143.456 69.6537 145.765 68.1967 148.186 67.3449C150.607 66.4483 153.275 66 156.19 66C158.342 66 160.382 66.1793 162.31 66.538C164.283 66.8966 166.324 67.5242 168.431 68.4208C170.583 69.2726 172.96 70.4382 175.56 71.9176C178.161 73.3521 181.188 75.1453 184.64 77.2972L180.067 83.282C176.435 80.9508 173.341 79.068 170.785 77.6334C168.229 76.154 165.898 75.0781 163.79 74.4056C161.683 73.7332 159.463 73.397 157.132 73.397C155.024 73.397 153.186 73.8004 151.616 74.6074C150.047 75.4143 148.679 76.423 147.514 77.6334C146.393 78.8438 145.406 80.0991 144.554 81.3991C144.958 82.1164 145.429 82.8785 145.967 83.6855C146.505 84.4924 147.065 85.2097 147.648 85.8373H154.441Z" fill="white"/>
<path d="M204.26 85.8373V93.2343H180.854V101.909C180.854 102.581 180.966 103.164 181.191 103.657C181.415 104.106 181.886 104.33 182.603 104.33C183.186 104.33 183.814 104.128 184.486 103.725C185.159 103.276 185.832 102.671 186.504 101.909C187.222 101.102 187.939 100.205 188.656 99.2191L196.526 97.7397C198.05 99.9364 199.194 102.155 199.956 104.397C200.718 106.594 201.099 108.97 201.099 111.525C201.099 114.349 200.404 116.882 199.014 119.124C197.669 121.32 195.629 123.069 192.894 124.369C190.203 125.669 186.863 126.319 182.872 126.319C179.913 126.319 177.065 125.893 174.33 125.041C171.595 124.189 169.017 122.755 166.596 120.738C164.219 118.675 162.022 115.873 160.004 112.332C158.031 108.745 156.305 104.262 154.825 98.8829L163.233 96.5293C164.712 101.864 166.394 106.168 168.277 109.44C170.16 112.668 172.245 115.022 174.532 116.501C176.864 117.936 179.397 118.653 182.132 118.653C185.361 118.653 187.849 117.936 189.598 116.501C191.392 115.022 192.288 112.982 192.288 110.382C192.288 108.633 191.974 107.199 191.347 106.078C190.719 104.957 190.002 103.904 189.194 102.918L196.055 102.38C194.441 104.531 192.804 106.302 191.145 107.692C189.486 109.082 187.804 110.113 186.101 110.785C184.442 111.458 182.715 111.794 180.922 111.794C179.487 111.794 178.209 111.592 177.088 111.189C175.967 110.74 175.025 110.09 174.263 109.239C173.501 108.387 172.918 107.289 172.514 105.944C172.156 104.599 171.976 102.873 171.976 100.766V93.2343H153.077V85.8373H204.26Z" fill="white"/>
<path d="M231.111 85.8373V93.2343H227.277C225.752 93.9964 224.273 94.9378 222.838 96.0586C221.448 97.1345 220.192 98.3897 219.071 99.8243C217.995 101.214 217.121 102.761 216.448 104.464C215.821 106.168 215.507 108.006 215.507 109.978C215.507 112.668 215.91 114.775 216.717 116.299C217.524 117.824 218.533 118.899 219.744 119.527C220.955 120.11 222.165 120.401 223.376 120.401C224.183 120.401 224.968 120.334 225.73 120.2C226.492 120.02 227.367 119.684 228.353 119.191L231.716 125.848C230.236 126.7 228.779 127.283 227.344 127.597C225.909 127.866 224.407 128 222.838 128C219.52 128 216.628 127.328 214.162 125.983C211.695 124.593 209.79 122.576 208.445 119.931C207.144 117.241 206.494 113.991 206.494 110.18C206.494 107.087 207.055 104.218 208.176 101.573C209.296 98.9277 210.866 96.6189 212.884 94.6464C214.946 92.6291 217.368 91.1048 220.148 90.0738L215.843 92.9653C215.126 93.055 214.296 93.1222 213.354 93.167C212.458 93.2119 211.292 93.2343 209.857 93.2343H202.929V85.8373H231.111Z" fill="white"/>
<path d="M288.779 85.8373V93.2343H266.853V97.269L266.987 100.026V127.664H258.109C256.45 125.243 254.432 123.114 252.056 121.275C249.724 119.437 247.124 117.913 244.254 116.703C241.384 115.448 238.268 114.551 234.905 114.013L231.542 106.078C235.667 103.792 240.174 101.595 245.061 99.4881C249.993 97.3362 254.836 95.6327 259.589 94.3774L258.311 96.3275V93.2343H229.793V85.8373H288.779ZM258.109 100.833L259.522 102.312C257.549 102.895 255.643 103.523 253.805 104.195C252.011 104.868 250.217 105.607 248.424 106.414C246.63 107.176 244.77 108.028 242.841 108.97C244.68 109.328 246.586 109.956 248.558 110.852C250.576 111.704 252.527 112.825 254.41 114.215C256.338 115.604 258.064 117.218 259.589 119.056L258.378 119.796C258.333 118.989 258.266 118.093 258.176 117.106C258.132 116.12 258.109 115.067 258.109 113.946V100.833ZM285.954 110.315C285.954 111.794 285.64 113.206 285.013 114.551C284.43 115.896 283.398 116.994 281.919 117.846C280.439 118.698 278.376 119.124 275.731 119.124C274.789 119.124 273.915 119.101 273.108 119.056C272.346 118.967 271.628 118.855 270.956 118.72L271.225 111.323C271.449 111.368 271.718 111.413 272.032 111.458C272.39 111.458 272.839 111.458 273.377 111.458C274.991 111.458 276.045 111.189 276.538 110.651C277.031 110.068 277.278 109.373 277.278 108.566C277.278 107.042 276.314 105.697 274.386 104.531C272.458 103.366 269.633 102.469 265.911 101.842V94.5119C269.588 95.0051 272.928 95.9465 275.933 97.3362C278.982 98.6811 281.403 100.452 283.197 102.649C285.035 104.8 285.954 107.356 285.954 110.315Z" fill="white"/>
<path d="M341 85.8373V93.2343H334.543V127.664H325.665V106.482L327.481 110.315C326.764 109.014 325.912 107.894 324.925 106.952C323.939 106.011 322.818 105.54 321.562 105.54C321.114 105.54 320.598 105.652 320.015 105.876C319.477 106.101 319.006 106.526 318.603 107.154C318.244 107.782 318.065 108.701 318.065 109.911C318.065 110.315 318.087 110.696 318.132 111.054C318.177 111.368 318.222 111.704 318.267 112.063L310.666 112.534C310.442 111.054 309.994 109.777 309.321 108.701C308.694 107.58 307.886 106.728 306.9 106.145C305.913 105.563 304.725 105.271 303.335 105.271C302.528 105.271 301.811 105.428 301.183 105.742C300.555 106.011 300.062 106.414 299.703 106.952C299.389 107.49 299.232 108.118 299.232 108.835C299.232 110.449 299.86 111.704 301.116 112.601C302.416 113.497 303.985 114.237 305.824 114.82L303.268 122.351C300.578 121.589 298.246 120.581 296.273 119.325C294.3 118.025 292.776 116.479 291.7 114.685C290.623 112.892 290.085 110.83 290.085 108.499C290.085 106.257 290.623 104.33 291.7 102.716C292.82 101.102 294.3 99.8691 296.139 99.0174C297.977 98.1208 299.995 97.6725 302.192 97.6725C304.837 97.6725 307.057 98.1208 308.85 99.0174C310.644 99.8691 312.505 101.281 314.433 103.254L313.222 102.783C313.715 101.214 314.59 100.026 315.845 99.2191C317.101 98.4121 318.424 98.0087 319.814 98.0087C321.383 98.0087 322.773 98.3225 323.984 98.9501C325.239 99.5777 326.405 100.43 327.481 101.505L326.001 102.581C325.912 101.595 325.822 100.609 325.732 99.6226C325.688 98.6363 325.665 97.65 325.665 96.6638V93.2343H287.462V85.8373H341Z" fill="white"/>
<g opacity="0.15">
<mask id="mask0_519_25" style="mask-type:luminance" maskUnits="userSpaceOnUse" x="303" y="148" width="82" height="82">
<path d="M303 148H385V230H303V148Z" fill="white"/>
</mask>
<g mask="url(#mask0_519_25)">
<path d="M314.232 158.908V228.799" stroke="white" stroke-width="1.5" stroke-miterlimit="10" stroke-linecap="round" stroke-linejoin="round"/>
<path d="M315.407 151.553L314.231 149.201L309.378 158.908H319.085L317.932 156.602" stroke="white" stroke-width="1.5" stroke-miterlimit="10" stroke-linecap="round" stroke-linejoin="round"/>
<path d="M374.092 189H304.201" stroke="white" stroke-width="1.5" stroke-miterlimit="10" stroke-linecap="round" stroke-linejoin="round"/>
<path d="M381.072 190.363L383.799 189L374.092 184.147V193.853L376.003 192.898" stroke="white" stroke-width="1.5" stroke-miterlimit="10" stroke-linecap="round" stroke-linejoin="round"/>
<path d="M375.871 220.548C344.331 220.548 318.762 194.979 318.762 163.438" stroke="white" stroke-width="1.5" stroke-miterlimit="10" stroke-linecap="round" stroke-linejoin="round"/>
<path d="M375.871 157.452C344.331 157.452 318.762 183.021 318.762 214.562" stroke="white" stroke-width="1.5" stroke-miterlimit="10" stroke-linecap="round" stroke-linejoin="round"/>
<path d="M383.799 174.601L378.945 181.535" stroke="white" stroke-width="1.5" stroke-miterlimit="10" stroke-linecap="round" stroke-linejoin="round"/>
<path d="M378.945 174.601L383.799 181.535" stroke="white" stroke-width="1.5" stroke-miterlimit="10" stroke-linecap="round" stroke-linejoin="round"/>
<path d="M309.055 163.438L304.201 170.372" stroke="white" stroke-width="1.5" stroke-miterlimit="10" stroke-linecap="round" stroke-linejoin="round"/>
<path d="M304.201 163.438L306.628 166.905" stroke="white" stroke-width="1.5" stroke-miterlimit="10" stroke-linecap="round" stroke-linejoin="round"/>
<path d="M359.854 205.826H361.472" stroke="white" stroke-width="1.5" stroke-miterlimit="10" stroke-linecap="round" stroke-linejoin="round"/>
<path d="M359.854 201.619H361.472" stroke="white" stroke-width="1.5" stroke-miterlimit="10" stroke-linecap="round" stroke-linejoin="round"/>
<path d="M365.68 207.282V200.81" stroke="white" stroke-width="1.5" stroke-miterlimit="10" stroke-linecap="round" stroke-linejoin="round"/>
<path d="M374.658 204.216C375.126 206.049 373.506 207.668 371.673 207.2C370.842 206.988 370.18 206.325 369.967 205.494C369.499 203.661 371.118 202.041 372.952 202.51C373.783 202.722 374.445 203.384 374.658 204.216Z" stroke="white" stroke-width="1.5" stroke-miterlimit="10" stroke-linecap="round" stroke-linejoin="round"/>
<path d="M383.717 204.216C384.186 206.049 382.566 207.668 380.733 207.2C379.902 206.988 379.239 206.325 379.027 205.494C378.559 203.661 380.178 202.041 382.011 202.51C382.842 202.722 383.505 203.384 383.717 204.216Z" stroke="white" stroke-width="1.5" stroke-miterlimit="10" stroke-linecap="round" stroke-linejoin="round"/>
<path d="M381.372 212.135C382.712 212.135 383.799 211.049 383.799 209.708V204.855" stroke="white" stroke-width="1.5" stroke-miterlimit="10" stroke-linecap="round" stroke-linejoin="round"/>
<path d="M356.296 200.81L351.442 207.282" stroke="white" stroke-width="1.5" stroke-miterlimit="10" stroke-linecap="round" stroke-linejoin="round"/>
<path d="M351.442 200.81L353.869 204.046" stroke="white" stroke-width="1.5" stroke-miterlimit="10" stroke-linecap="round" stroke-linejoin="round"/>
</g>
</g>
<g opacity="0.15">
<path d="M95.2099 200.53L73.577 200.53L71.5496 200.53L71.5496 202.558L71.5496 224.191L52.6883 224.191L52.6883 202.558L52.6883 200.53L50.6608 200.53L29.028 200.53L29.028 181.669L50.6608 181.669L52.6883 181.669L52.6883 179.642L52.6883 158.009L71.5496 158.009L71.5496 179.642L71.5496 181.669L73.577 181.669L95.2099 181.669L95.2099 200.53ZM97.2187 202.558L97.2187 179.66L73.5585 179.66L73.5585 156L50.6608 156L50.6608 179.66L27.0005 179.66L27.0005 202.558L50.6608 202.558L50.6608 226.218L73.5585 226.218L73.5585 202.558L97.2187 202.558Z" fill="white"/>
<path d="M136.543 45.3592L120.816 45.3592L119.341 45.3592L119.341 46.8341L119.341 62.5606L105.641 62.5606L105.641 46.8341L105.641 45.3592L104.166 45.3592L88.4394 45.3592L88.4394 31.6585L104.166 31.6585L105.641 31.6585L105.641 30.1836L105.641 14.4571L119.341 14.4571L119.341 30.1836L119.341 31.6585L120.816 31.6585L136.543 31.6585L136.543 45.3592ZM138 46.8164L138 30.1836L120.816 30.1836L120.816 13L104.184 13L104.184 30.1836L87 30.1836L87 46.8164L104.184 46.8164L104.184 64L120.816 64L120.816 46.8164L138 46.8164Z" fill="white"/>
</g>
<defs>
<linearGradient id="paint0_linear_519_25" x1="407" y1="375" x2="814" y2="375" gradientUnits="userSpaceOnUse">
<stop stop-color="#29323C"/>
<stop offset="1" stop-color="#485563"/>
</linearGradient>
</defs>
</svg>
