<svg xmlns="http://www.w3.org/2000/svg" width="610" height="613" viewBox="0 0 610 613" fill="none"><mask id="mask0_297_1944" style="mask-type:alpha" maskUnits="userSpaceOnUse" x="0" y="0" width="610" height="613"><path d="M600.857 250.951C592.674 243.438 581.578 240.408 571.366 242.571C577.037 236.896 582.716 231.213 588.387 225.539C600.139 213.778 601.014 192.245 588.387 180.651C575.724 169.022 556.069 168.103 543.529 180.651C537.649 186.536 531.777 192.412 525.896 198.296C529.554 187.123 527.384 173.943 518.449 165.738C510.013 157.989 498.471 155.002 487.996 157.586C500.807 144.766 513.627 131.937 526.439 119.117C538.191 107.357 539.066 85.8235 526.439 74.2295C513.776 62.6004 494.122 61.6809 481.581 74.2295C470.599 85.2193 459.608 96.2179 448.626 107.208C452.493 95.9376 450.384 82.5047 441.327 74.1857C434.011 67.4604 424.359 64.3342 415.092 65.2975C418.872 61.5145 422.644 57.7403 426.424 53.9574C438.177 42.197 439.052 20.6639 426.424 9.06988C413.762 -2.55919 394.107 -3.47866 381.567 9.06988C361.904 28.7465 342.241 48.4231 322.577 68.0997C327.259 56.5144 325.395 42.1357 315.9 33.4139C303.22 21.7673 283.601 20.8828 271.043 33.4139C210.705 93.6171 150.377 153.82 90.039 214.032C72.9047 231.126 55.7791 248.219 38.6448 265.321C26.8836 277.064 26.0348 298.623 38.6448 310.209C48.5159 319.272 62.5873 321.811 74.2611 316.583C52.5588 338.3 30.8478 360.026 9.14547 381.743C-2.60702 393.503 -3.48211 415.037 9.14547 426.631C21.8081 438.26 41.4626 439.179 54.0027 426.631C62.5786 418.049 71.1632 409.458 79.7392 400.877C78.514 410.422 81.2968 420.448 88.5951 427.156C97.6698 435.493 110.35 438.321 121.42 434.634C117.333 438.724 113.246 442.813 109.151 446.911C97.3985 458.672 96.5234 480.205 109.151 491.799C121.814 503.428 141.468 504.347 154.008 491.799C155.233 490.573 156.467 489.338 157.692 488.112C154.883 498.839 157.29 510.985 165.708 518.717C174.66 526.94 187.113 529.804 198.069 526.336C189.073 535.338 180.086 544.331 171.09 553.333C159.338 565.094 158.462 586.627 171.09 598.221C183.753 609.85 203.407 610.769 215.947 598.221C223.911 590.252 231.883 582.275 239.846 574.306C237.431 584.779 239.942 596.434 248.107 603.93C260.769 615.559 280.424 616.479 292.964 603.93C312.61 584.271 332.256 564.612 351.902 544.953C349.609 555.347 352.147 566.836 360.232 574.253C372.886 585.882 392.558 586.802 405.09 574.253C466.285 512.973 527.471 451.701 588.667 390.421C600.41 378.661 601.294 357.136 588.667 345.534C580.616 338.143 569.738 335.087 559.657 337.057C573.387 323.317 587.109 309.587 600.839 295.847C612.609 284.087 613.484 262.554 600.857 250.951Z" fill="#1F2937"></path></mask><g mask="url(#mask0_297_1944)"><rect width="609" height="612" rx="30" fill="#D9D9D9"></rect></g></svg>