<svg width="48" height="42" viewBox="0 0 48 42" fill="none" xmlns="http://www.w3.org/2000/svg">
<path d="M14.5165 20.118H3.33712C3.52781 8.98646 5.72078 7.15104 12.5619 3.09882C13.3485 2.62209 13.6107 1.62096 13.1339 0.810514C12.6811 0.0239076 11.6561 -0.238295 10.8695 0.238437C2.81271 5.00575 0 7.91381 0 21.7628V34.6107C0 38.6867 3.31328 41.9762 7.3655 41.9762H14.5165C18.7117 41.9762 21.882 38.8059 21.882 34.6107V27.4597C21.882 23.2883 18.7117 20.118 14.5165 20.118Z" fill="#515A60"/>
<path d="M40.304 20.118H29.1246C29.3153 8.98646 31.5083 7.15104 38.3494 3.09882C39.136 2.62209 39.3982 1.62096 38.9215 0.810514C38.4447 0.0239076 37.4436 -0.238295 36.6331 0.238437C28.5764 5.00575 25.7637 7.91381 25.7637 21.7866V34.6345C25.7637 38.7106 29.077 42 33.1292 42H40.2801C44.4754 42 47.6456 38.8297 47.6456 34.6345V27.4835C47.6695 23.2883 44.4992 20.118 40.304 20.118Z" fill="#515A60"/>
</svg>
