<svg width="20" height="15" viewBox="0 0 20 15" fill="none" xmlns="http://www.w3.org/2000/svg">
<path d="M12.8351 13.5465C12.0447 12.5 11.6495 11.2597 11.6495 9.82558C11.6495 7.77132 12.3368 5.85271 13.7113 4.06977C15.0859 2.24806 16.9072 0.891474 19.1753 0L20 2.26744C18.5223 2.77132 17.354 3.52713 16.4948 4.53488C15.567 5.54264 15.1031 6.64729 15.1031 7.84884C15.5498 7.65504 16.1168 7.55814 16.8041 7.55814C17.5258 7.55814 18.1959 7.90698 18.8144 8.60465C19.433 9.26357 19.7423 10.1357 19.7423 11.2209C19.7423 12.2674 19.3471 13.1589 18.5567 13.8953C17.7663 14.6318 16.8041 15 15.6701 15C14.5704 15 13.6254 14.5155 12.8351 13.5465ZM8.09278 11.2209C8.09278 12.2674 7.69759 13.1589 6.90722 13.8953C6.11684 14.6318 5.15464 15 4.02062 15C2.92096 15 1.97594 14.4961 1.18557 13.4884C0.395189 12.4806 0 11.2597 0 9.82558C0 7.77132 0.704467 5.85271 2.1134 4.06977C3.45361 2.24806 5.25773 0.891474 7.52577 0L8.40206 2.26744C6.95876 2.77132 5.79038 3.52713 4.89691 4.53488C3.93471 5.54264 3.45361 6.64729 3.45361 7.84884C3.90034 7.65504 4.48454 7.55814 5.20619 7.55814C5.92784 7.55814 6.59794 7.8876 7.21649 8.54651C7.80069 9.24419 8.09278 10.1357 8.09278 11.2209Z" fill="white"/>
</svg>
