<svg width="22" height="21" viewBox="0 0 22 21" fill="none" xmlns="http://www.w3.org/2000/svg">
<path d="M21.9426 7.93565C21.7986 7.49193 21.4035 7.17678 20.936 7.13481L14.5862 6.56051L12.0753 0.70671C11.8902 0.277702 11.4686 0 11.0001 0C10.5316 0 10.11 0.277702 9.92484 0.707713L7.41396 6.56051L1.06316 7.13481C0.596538 7.17778 0.202425 7.49193 0.05757 7.93565C-0.0872851 8.37937 0.0464918 8.86606 0.399482 9.17285L5.19917 13.3656L3.78385 19.5755C3.68029 20.0321 3.85821 20.5041 4.23856 20.778C4.443 20.9251 4.68219 21 4.92339 21C5.13136 21 5.33765 20.9442 5.52279 20.8338L11.0001 17.5731L16.4754 20.8338C16.876 21.0739 17.3811 21.052 17.7606 20.778C18.1411 20.5033 18.3189 20.0311 18.2153 19.5755L16.8 13.3656L21.5997 9.17369C21.9527 8.86606 22.0875 8.38021 21.9426 7.93565Z" fill="#C4161C"/>
</svg>
